<svg width="57" height="49" viewBox="0 0 57 49" fill="none" xmlns="http://www.w3.org/2000/svg">
<path d="M16.4532 34.2029V5.9165H19.2983C19.6164 15.3132 19.9351 24.7283 20.2545 34.1618H35.5046C35.8228 24.7647 36.1414 15.3515 36.4604 5.92195H39.3123V34.1971C40.9136 34.3648 42.4644 34.5272 44.0155 34.6893C44.5232 34.7668 45.0356 34.8164 45.5499 34.8379C46.1781 34.8341 46.4206 35.1121 46.6494 35.5389C47.724 37.5431 48.8369 39.5336 49.9349 41.5285C50.0219 41.6865 50.1019 41.8469 50.2058 42.0455H5.57861C5.64953 41.89 5.70057 41.755 5.77076 41.6272C6.92598 39.5274 8.08776 37.43 9.23441 35.3272C9.29064 35.1936 9.39009 35.0786 9.51975 34.997C9.6494 34.9155 9.80321 34.8713 9.96105 34.8703C12.1089 34.6717 14.2503 34.434 16.4532 34.2029ZM23.0841 38.9468H21.2475V40.4532H23.0841V38.9468ZM26.9012 38.9534H25.0684V40.4639H26.9012V38.9534ZM30.708 40.4687V38.9486H28.8757V40.4687H30.708ZM32.6704 40.4542H34.5242V38.9458H32.6704V40.4542Z" fill="#28C675"/>
<path d="M4.85791 48.8795V43.4048H51.1324V48.8804L4.85791 48.8795ZM10.596 45.2632H6.80933V47.0406H10.596V45.2632Z" fill="#28C675"/>
<path d="M0.00106192 0C1.28877 0.924569 2.4714 1.7508 3.61803 2.62204C3.78755 2.75082 3.8533 3.08577 3.85385 3.32569C3.86616 8.86832 3.86943 14.411 3.86364 19.9538C3.86364 27.3441 3.86235 34.7344 3.85976 42.1248C3.87062 42.432 3.83776 42.7393 3.76225 43.0364C3.50815 43.8929 2.645 44.4328 1.73734 44.3434C0.813983 44.2532 0.0727142 43.5158 0.00623268 42.6172C-0.00373955 42.483 0.00124649 42.3478 0.00124649 42.213C0.00124649 28.3562 0.00124649 14.4994 0.00124649 0.642562L0.00106192 0Z" fill="#28C675"/>
<path d="M56.009 0.00512695V0.645168C56.009 14.5011 56.0112 28.3571 56.0156 42.2131C56.0156 43.1063 55.7202 43.8045 54.85 44.1877C53.6537 44.7151 52.2629 43.9085 52.1538 42.6435C52.139 42.4715 52.1466 42.2973 52.1466 42.1241C52.1466 29.2112 52.1428 16.2982 52.1352 3.38532C52.1235 3.18419 52.167 2.98377 52.2605 2.80783C52.354 2.63188 52.4936 2.4878 52.6628 2.39267C53.7544 1.64421 54.8182 0.858515 56.009 0.00512695Z" fill="#28C675"/>
</svg>
