<svg width="55" height="50" viewBox="0 0 55 50" fill="none" xmlns="http://www.w3.org/2000/svg">
<path d="M16.2417 34.0934V30.275C15.6576 30.275 15.1268 30.2793 14.5961 30.2739C13.4574 30.2627 12.9232 29.7867 12.922 28.7661C12.9179 25.4999 12.9179 22.2338 12.922 18.9678C12.9234 17.9415 13.4509 17.4655 14.5944 17.4649C20.4333 17.4616 26.2722 17.4616 32.1111 17.4649C33.295 17.4649 33.7993 17.9208 33.8006 18.9924C33.805 22.2418 33.805 25.4911 33.8006 28.7405C33.7991 29.8074 33.2873 30.2722 32.1119 30.2739C28.9705 30.2785 25.8294 30.2655 22.6884 30.2893C22.3117 30.301 21.9465 30.4094 21.6352 30.6021C19.8639 31.72 18.1189 32.8722 16.2417 34.0934ZM23.3584 21.4645C24.4667 21.4645 25.5751 21.4645 26.6835 21.4645C27.681 21.4645 28.6785 21.4645 29.6759 21.4603C30.0951 21.4583 30.4436 21.2627 30.4898 20.9085C30.5204 20.6063 30.4185 20.3054 30.2061 20.0708C30.0289 19.9021 29.6353 19.8657 29.3369 19.8643C26.363 19.8504 23.3888 19.8559 20.4148 19.8559C19.3435 19.8559 18.2721 19.8559 17.2007 19.8559C16.7332 19.8559 16.3636 20.0075 16.2245 20.4453C16.045 21.0099 16.4738 21.4589 17.2071 21.4611C19.2575 21.4682 21.308 21.464 23.3584 21.4645ZM23.3909 24.6693C25.423 24.6693 27.4552 24.6689 29.4875 24.668C30.1593 24.6668 30.5374 24.3801 30.549 23.8843C30.5612 23.3675 30.1734 23.0706 29.4722 23.0603C29.343 23.0585 29.2136 23.0603 29.0854 23.0603C25.6122 23.0603 22.139 23.0603 18.6657 23.0603C18.1299 23.0603 17.5933 23.0457 17.0585 23.0673C16.9425 23.0664 16.8274 23.0867 16.7201 23.127C16.6129 23.1674 16.5158 23.2269 16.4345 23.302C16.3533 23.3772 16.2896 23.4664 16.2472 23.5644C16.2049 23.6623 16.1848 23.7671 16.1881 23.8722C16.1884 23.9771 16.2116 24.0809 16.2563 24.1777C16.301 24.2744 16.3664 24.3622 16.4487 24.436C16.531 24.5097 16.6285 24.568 16.7357 24.6075C16.8429 24.6469 16.9577 24.6668 17.0734 24.6659C17.202 24.6742 17.332 24.6687 17.4603 24.6687C19.4371 24.6693 21.414 24.6695 23.3909 24.6693ZM23.3909 26.2707C21.3213 26.2707 19.2529 26.2677 17.1839 26.2726C16.5665 26.274 16.1914 26.5808 16.1868 27.0591C16.1821 27.5339 16.5589 27.8481 17.167 27.8777C17.204 27.8795 17.2409 27.879 17.2779 27.879C21.342 27.879 25.4061 27.8783 29.4701 27.877C30.1643 27.877 30.5595 27.5602 30.5492 27.049C30.5393 26.5533 30.1641 26.2726 29.4869 26.2717C27.4551 26.2688 25.4233 26.2685 23.3913 26.2707H23.3909Z" fill="#28C675"/>
<path d="M17.4526 8.24068L14.1201 3.50057C21.3266 -1.01758 32.2999 -1.30932 40.0988 3.4876L36.7617 8.23682C33.8754 6.57448 30.5263 5.69198 27.1066 5.69267C23.6869 5.69335 20.3383 6.57719 17.4527 8.24068H17.4526Z" fill="#28C675"/>
<path d="M8.34445 32.0613C8.34445 34.188 8.34445 36.3147 8.34445 38.4414C8.34445 39.2915 8.01447 39.6024 7.08722 39.6052C6.01605 39.6084 4.9416 39.6376 3.87431 39.5752C2.8366 39.5366 1.85579 39.1349 1.13801 38.4545C0.420231 37.7741 0.0213684 36.8679 0.0252448 35.9265C-0.00802348 33.3482 -0.00841042 30.7694 0.0240842 28.1903C0.0207881 27.2319 0.430315 26.3102 1.16548 25.6214C1.90064 24.9326 2.90337 24.5311 3.96019 24.5024C5.06617 24.4537 6.17679 24.4769 7.28489 24.4932C8.00055 24.5037 8.34271 24.8675 8.34406 25.5802C8.3478 27.7403 8.34793 29.9007 8.34445 32.0613Z" fill="#28C675"/>
<path d="M45.865 32.058C45.865 29.9648 45.865 27.8716 45.865 25.7783C45.865 24.7348 46.1441 24.4784 47.3156 24.4891C48.4595 24.4995 49.6138 24.4483 50.7444 24.5712C51.6806 24.6804 52.5424 25.0912 53.1723 25.7284C53.8023 26.3657 54.1585 27.1871 54.1758 28.0426C54.2183 30.7044 54.2186 33.3668 54.177 36.0296C54.1573 36.9363 53.7623 37.8032 53.0703 38.4581C52.3783 39.1131 51.44 39.5083 50.4415 39.5652C49.2825 39.6364 48.1152 39.6122 46.952 39.5992C46.2061 39.591 45.8679 39.2439 45.8661 38.5389C45.8605 36.3783 45.865 34.2178 45.865 32.058Z" fill="#28C675"/>
<path d="M37.9731 37.2137C37.7304 37.0703 37.5784 36.9879 37.4351 36.8946C35.8136 35.8406 34.2028 34.7732 32.5643 33.7412C32.2528 33.5495 31.8877 33.4418 31.5114 33.4307C28.3509 33.4072 25.1902 33.4241 22.0295 33.4078C21.6502 33.4058 21.2715 33.2784 20.8926 33.2089L20.8949 33.0473C21.4479 32.6889 21.9891 32.3141 22.561 31.9825C22.7601 31.901 22.9793 31.8682 23.1968 31.8875C26.1911 31.8819 29.1855 31.8891 32.1796 31.8814C33.8473 31.8772 35.0809 31.0766 35.46 29.7436C35.5449 29.4011 35.5829 29.0504 35.5732 28.6994C35.5823 26.2198 35.578 23.7401 35.578 21.2603V20.6416C37.1265 20.6416 38.6035 20.6158 40.0785 20.6526C40.7971 20.6702 41.2719 21.2407 41.2847 21.9888C41.299 22.8263 41.2886 23.6642 41.2886 24.5019C41.2886 26.9481 41.2886 29.3942 41.2886 31.8404C41.2886 32.9598 40.7775 33.415 39.5323 33.4169C39.0356 33.4169 38.5391 33.4169 37.9737 33.4169L37.9731 37.2137Z" fill="#28C675"/>
<path d="M47.5773 41.2483H49.3374C49.3293 42.5695 49.5477 43.8896 48.9268 45.124C47.9376 47.091 46.2034 48.0679 43.8329 48.0746C40.1919 48.0849 36.551 48.0674 32.91 48.0471C32.5199 48.045 32.2878 48.119 32.0872 48.4626C31.8847 48.844 31.5676 49.1659 31.1725 49.3915C30.7773 49.617 30.32 49.737 29.853 49.7377C28.0242 49.7674 26.1925 49.7932 24.3657 49.7313C22.7819 49.6774 21.7118 48.5408 21.7704 47.1277C21.8249 45.8155 23.0311 44.7881 24.5556 44.7783C26.2558 44.768 27.9563 44.7716 29.6567 44.7772C30.1688 44.7603 30.6753 44.879 31.1143 45.1187C31.5532 45.3585 31.9056 45.7089 32.1284 46.1273C32.1816 46.2393 32.2738 46.3325 32.3909 46.3925C32.508 46.4525 32.6436 46.476 32.7769 46.4595C36.455 46.4577 40.1331 46.4718 43.8112 46.4679C46.0845 46.4655 47.549 45.1354 47.5773 43.072C47.5842 42.4736 47.5773 41.8753 47.5773 41.2483Z" fill="#28C675"/>
<path d="M13.1811 5.16187C13.9497 6.25607 14.6812 7.29733 15.4248 8.35648C10.3436 12.1391 7.8862 16.9957 8.01676 22.8831H3.83172C3.69285 19.4641 4.47099 16.0656 6.09938 12.9791C7.72776 9.89255 10.1578 7.21012 13.1811 5.16187Z" fill="#28C675"/>
<path d="M38.7832 8.35561L41.0257 5.16626C43.7309 6.99098 45.9636 9.32949 47.5674 12.0182C49.5861 15.3876 50.4913 18.9946 50.3795 22.8766H46.1941C46.3177 17.0116 43.875 12.1488 38.7832 8.35561Z" fill="#28C675"/>
</svg>
