<svg width="278" height="169" viewBox="0 0 278 169" fill="none" xmlns="http://www.w3.org/2000/svg">
<g filter="url(#filter0_d_272_535)">
<path d="M36.319 85.5539C36.5244 80.3288 36.4533 75.0964 36.1063 69.8787C35.3333 59.1185 33.6913 48.4385 31.1962 37.9431C29.8255 32.0306 28.1397 26.2204 26.3803 20.4184C26.3312 20.2424 26.0489 20.2915 26.098 20.4757C31.5318 40.9341 35.9876 62.0472 35.6807 83.3158C35.5948 89.2692 34.9074 95.1162 34.3427 101.029C34.3427 101.188 34.5882 101.25 34.6251 101.086C35.7462 96.0246 36.1104 90.7217 36.319 85.5539Z" fill="#C79AA1"/>
<path d="M26.0971 20.4756C26.0971 20.4756 17.8647 41.3677 19.71 46.2778C21.5554 51.1878 25.3525 52.2353 25.3525 52.2353C25.3525 52.2353 20.3156 59.408 23.8344 66.1715C27.3533 72.9351 35.1725 72.5955 35.7003 80.2429C35.6922 80.2429 36.13 48.2704 26.0971 20.4756Z" fill="#C79AA1"/>
<path d="M34.7963 67.0389C34.8102 67.0034 34.8102 66.964 34.7963 66.9285C33.6424 52.7221 31.1138 38.5608 26.8134 24.9027C26.8134 24.8618 26.7357 24.8741 26.7479 24.9027C28.3846 31.0157 29.8249 37.1601 31.0688 43.3358C29.9632 42.289 28.6126 41.5363 27.1407 41.1467C27.1353 41.1467 27.1301 41.1489 27.1263 41.1527C27.1224 41.1566 27.1203 41.1618 27.1203 41.1672C27.1203 41.1726 27.1224 41.1778 27.1263 41.1817C27.1301 41.1855 27.1353 41.1877 27.1407 41.1877C28.6628 41.8464 30.1195 42.6075 31.1956 43.9005C31.437 45.128 31.6743 46.3227 31.8953 47.5339C30.0581 45.488 27.5049 44.4569 24.9394 43.4872C24.9067 43.4872 24.8862 43.5322 24.9394 43.5445C27.5949 44.6288 30.2586 46.0199 32.0467 48.3113C32.6741 51.781 33.2196 55.2603 33.6833 58.7492C32.3525 57.3576 30.6471 56.3813 28.7733 55.9382C28.716 55.9382 28.6833 56.0077 28.7447 56.0241C30.6772 56.5815 32.4059 57.689 33.7202 59.2115C33.7292 59.2219 33.7404 59.2303 33.7529 59.2361C33.9166 60.4636 34.072 61.6911 34.2153 62.9186C33.1875 62.0483 32.0272 61.348 30.7782 60.8441C30.7729 60.8462 30.7684 60.8499 30.7652 60.8547C30.7619 60.8594 30.7602 60.865 30.7602 60.8707C30.7602 60.8764 30.7619 60.882 30.7652 60.8868C30.7684 60.8915 30.7729 60.8952 30.7782 60.8973C32.0514 61.4491 33.2176 62.2205 34.2234 63.1764C34.2234 63.1764 34.2521 63.1764 34.2685 63.1968C34.4035 64.3671 34.5426 65.5373 34.6776 66.7075C32.8239 64.4674 30.4179 62.7496 27.6972 61.7238C27.687 61.722 27.6765 61.7238 27.6675 61.7288C27.6584 61.7338 27.6514 61.7418 27.6475 61.7514C27.6437 61.761 27.6433 61.7717 27.6464 61.7816C27.6494 61.7914 27.6558 61.8 27.6645 61.8057C30.351 62.9912 32.7119 64.8075 34.5467 67.1003C34.5653 67.1271 34.5921 67.1472 34.6231 67.1575C34.6541 67.1678 34.6875 67.1679 34.7185 67.1576C34.8986 68.9552 35.0554 70.7556 35.1891 72.5586C35.1891 72.5832 35.23 72.5873 35.23 72.5586C35.0909 70.7228 34.9463 68.8829 34.7963 67.0389Z" fill="white"/>
<path d="M28.1841 39.0805C26.7561 38.1026 24.9435 37.6811 23.2372 37.542C23.1963 37.542 23.1963 37.5993 23.2372 37.6034C25.0089 37.8652 26.5106 38.5076 28.1268 39.1991C28.1841 39.2319 28.2455 39.1255 28.1841 39.0805Z" fill="white"/>
<path d="M29.182 61.2044C28.037 60.5485 26.7775 60.1166 25.4709 59.9319C25.4258 59.9319 25.4218 59.9974 25.4709 60.0014C26.7522 60.2582 27.9916 60.692 29.1534 61.2903C29.163 61.2896 29.1722 61.286 29.1799 61.2801C29.1875 61.2741 29.1932 61.2661 29.1963 61.2569C29.1993 61.2477 29.1996 61.2378 29.1971 61.2285C29.1945 61.2191 29.1893 61.2108 29.182 61.2044Z" fill="white"/>
<path d="M57.9593 46.6174C54.4781 49.0252 51.2812 51.82 48.4298 54.9481C45.4909 58.2572 43.2218 62.1049 41.7481 66.278C38.6239 74.9766 36.9445 84.1279 36.7767 93.3691C36.6711 98.4894 37.1641 103.605 38.2456 108.611C38.2526 108.648 38.2743 108.681 38.3057 108.703C38.3372 108.724 38.3759 108.732 38.4133 108.725C38.4508 108.718 38.4839 108.696 38.5054 108.665C38.5268 108.634 38.535 108.595 38.5279 108.557C37.1848 99.7238 37.2359 90.7342 38.6793 81.9164C40.095 73.2748 42.3127 63.8721 47.8078 56.8467C50.7989 53.0209 54.5305 50.0135 58.2171 46.9039C58.4053 46.7484 58.1598 46.4783 57.9593 46.6174Z" fill="#C79AA1"/>
<path d="M38.0039 87.1535C39.9894 83.9486 42.3221 80.9724 44.9598 78.2787C49.0801 74.1624 52.5458 71.2369 53.0818 68.5118C53.6178 65.7867 48.9574 63.7859 48.9574 63.7859C48.9574 63.7859 54.6571 64.8088 56.216 62.4152C57.7749 60.0216 58.5278 46.1753 58.5278 46.1753C58.5278 46.1753 48.1595 53.5731 43.3313 63.9496C38.5031 74.3261 38.0039 87.1535 38.0039 87.1535Z" fill="#C79AA1"/>
<path d="M54.9068 49.7232C50.545 54.0072 46.1547 58.5735 43.5851 64.2037C42.7078 66.1477 41.9441 68.1409 41.2978 70.1734C41.1669 70.5826 41.0319 70.9918 40.8887 71.4009C40.8776 71.4212 40.8707 71.4434 40.8682 71.4664C39.6502 75.6746 38.668 79.9475 37.9263 84.2652C37.9263 84.2897 37.959 84.3061 37.9672 84.2652C38.4132 82.1048 38.9042 79.9198 39.4566 77.7471C39.4768 77.751 39.4977 77.751 39.5179 77.7471C40.383 77.3752 41.3012 77.1419 42.2389 77.0556C42.3003 77.0556 42.2962 76.9411 42.2389 76.9452C41.3235 76.987 40.4178 77.1521 39.5466 77.4362C40.0499 75.4722 40.5941 73.5163 41.2078 71.5891C43.2184 71.097 45.2761 70.8227 47.3453 70.7708V70.734C45.3228 70.6527 43.2982 70.8343 41.3224 71.2741C41.4288 70.9427 41.5392 70.6153 41.6497 70.2839C42.9969 69.9637 44.3638 69.7327 45.7414 69.5924C45.7659 69.5924 45.7659 69.5474 45.7414 69.5474C44.3931 69.574 43.051 69.7372 41.7356 70.0343C42.2962 68.3649 42.9059 66.72 43.5851 65.1243C44.1441 63.8115 44.7978 62.5411 45.5409 61.3231C46.6327 61.0531 47.7413 60.8562 48.8593 60.7339C48.892 60.7339 48.8879 60.6807 48.8593 60.6766C47.8154 60.5982 46.766 60.7021 45.7578 60.9835C46.302 60.1038 46.8748 59.2404 47.4885 58.4057C49.8126 57.8902 52.1694 57.4115 54.5508 57.8574C54.5917 57.8574 54.604 57.7961 54.5508 57.7879C52.2881 57.1905 50.0499 57.5342 47.7872 57.9802C48.0327 57.6529 48.2864 57.3296 48.5401 57.0105C49.9473 56.5772 51.4091 56.3471 52.8814 56.3272C52.8879 56.3272 52.8941 56.3246 52.8987 56.32C52.9033 56.3154 52.9059 56.3091 52.9059 56.3026C52.9059 56.2961 52.9033 56.2898 52.8987 56.2852C52.8941 56.2806 52.8879 56.2781 52.8814 56.2781C51.5218 56.1536 50.1509 56.2755 48.8347 56.6381C50.7537 54.2527 52.8773 52.0104 54.9722 49.7886C55.0868 49.6823 55.0091 49.625 54.9068 49.7232Z" fill="white"/>
<path d="M54.78 59.1665C54.1026 59.0696 53.4168 59.0449 52.7342 59.0928C52.6523 59.0928 52.6564 59.2401 52.7342 59.2401C53.4175 59.2401 54.0967 59.2115 54.78 59.2401C54.7869 59.2368 54.7928 59.2315 54.7968 59.225C54.8009 59.2185 54.8031 59.211 54.8031 59.2033C54.8031 59.1956 54.8009 59.1881 54.7968 59.1816C54.7928 59.1751 54.7869 59.1698 54.78 59.1665Z" fill="white"/>
<path d="M47.3291 72.6038C46.2344 72.6286 45.1527 72.8461 44.1335 73.2462C44.1089 73.2462 44.1335 73.2953 44.1335 73.2912C45.1891 73.0375 46.2571 72.9352 47.3209 72.7592C47.3311 72.7598 47.3413 72.7583 47.351 72.7549C47.3606 72.7515 47.3695 72.7462 47.3771 72.7394C47.3847 72.7325 47.3908 72.7243 47.3952 72.715C47.3996 72.7058 47.4022 72.6958 47.4027 72.6856C47.4033 72.6754 47.4018 72.6652 47.3984 72.6555C47.395 72.6459 47.3897 72.637 47.3829 72.6294C47.376 72.6218 47.3677 72.6156 47.3585 72.6112C47.3493 72.6068 47.3393 72.6043 47.3291 72.6038Z" fill="white"/>
<path d="M45.0958 67.9595C44.6401 67.9576 44.1853 67.9987 43.7373 68.0823C43.6923 68.0823 43.6964 68.1641 43.7373 68.1641C44.191 68.1888 44.6461 68.1683 45.0958 68.1028C45.1776 68.0864 45.1735 67.9636 45.0958 67.9595Z" fill="white"/>
<path d="M7.59455 61.3188C10.9678 62.4622 14.2004 63.9845 17.2305 65.8565C20.3743 67.8545 23.0995 70.4449 25.2543 73.4834C29.7975 79.8006 33.2751 86.8194 35.549 94.261C36.8169 98.384 37.5996 102.641 37.8812 106.945C37.876 106.973 37.8611 106.999 37.839 107.017C37.817 107.036 37.7892 107.046 37.7605 107.046C37.7318 107.046 37.7041 107.036 37.682 107.017C37.66 106.999 37.645 106.973 37.6398 106.945C36.6854 99.4858 34.5675 92.2222 31.3632 85.4188C28.2207 78.7535 24.2477 71.6585 18.1797 67.2436C14.8737 64.8377 11.1584 63.2665 7.45544 61.6011C7.26313 61.5234 7.40224 61.2493 7.59455 61.3188Z" fill="#C79AA1"/>
<path d="M33.1303 89.5067C30.785 87.3712 28.2122 85.4997 25.4584 83.9257C21.1744 81.5484 17.6842 79.9813 16.6286 77.9027C15.5729 75.8241 18.8708 73.1236 18.8708 73.1236C18.8708 73.1236 14.4968 75.2677 12.6842 73.6924C10.8716 72.1171 7.05811 61.0818 7.05811 61.0818C7.05811 61.0818 17.1564 64.6743 23.4658 71.9575C29.7751 79.2407 33.1303 89.5067 33.1303 89.5067Z" fill="#C79AA1"/>
<path d="M32.6024 87.2315C27.5491 77.747 20.8183 69.1708 11.5752 63.4998C13.9871 65.0595 16.2486 66.8402 18.3306 68.8189C16.4514 68.7163 14.5784 69.1115 12.9009 69.9646C12.8957 69.9692 12.892 69.9753 12.8905 69.982C12.8889 69.9888 12.8896 69.9958 12.8923 70.0022C12.895 70.0086 12.8997 70.0139 12.9057 70.0175C12.9116 70.021 12.9186 70.0226 12.9255 70.0219C14.7109 69.3522 16.6083 69.0314 18.5147 69.0767C18.5375 69.0762 18.5593 69.0675 18.5761 69.0522C18.9075 69.3631 19.2307 69.6782 19.5499 69.9974C18.5737 70.043 17.6032 70.1717 16.6489 70.382C16.6435 70.382 16.6383 70.3841 16.6344 70.388C16.6306 70.3918 16.6284 70.397 16.6284 70.4024C16.6284 70.4079 16.6306 70.4131 16.6344 70.4169C16.6383 70.4207 16.6435 70.4229 16.6489 70.4229C17.6591 70.2341 18.686 70.1491 19.7136 70.1692C21.4089 71.8773 23.0072 73.6791 24.5008 75.5661C23.8162 75.4688 23.1186 75.519 22.455 75.7134C22.4468 75.7161 22.4397 75.7213 22.4346 75.7283C22.4296 75.7353 22.4269 75.7437 22.4269 75.7523C22.4269 75.7609 22.4296 75.7693 22.4346 75.7763C22.4397 75.7833 22.4468 75.7885 22.455 75.7912C23.1736 75.7081 23.8989 75.6985 24.6195 75.7625C24.8977 76.1144 25.176 76.4622 25.4378 76.8182C23.3733 76.6941 21.3021 76.8957 19.3003 77.4156C19.2717 77.4156 19.2798 77.4688 19.3003 77.4647C21.3731 77.0589 23.4895 76.9214 25.5974 77.0555C25.8552 77.3951 26.1007 77.747 26.3503 78.0948C25.1205 78.059 23.8918 78.1968 22.7005 78.504C22.6949 78.502 22.689 78.5015 22.6832 78.5023C22.6774 78.5031 22.6718 78.5053 22.6671 78.5087C22.6623 78.5121 22.6584 78.5166 22.6557 78.5219C22.653 78.5271 22.6516 78.5329 22.6516 78.5388C22.6516 78.5446 22.653 78.5504 22.6557 78.5556C22.6584 78.5609 22.6623 78.5654 22.6671 78.5688C22.6718 78.5722 22.6774 78.5744 22.6832 78.5752C22.689 78.576 22.6949 78.5755 22.7005 78.5735C23.9402 78.305 25.2109 78.2072 26.4771 78.283C27.5655 79.7765 28.6048 81.3068 29.6073 82.8575C29.0725 82.7608 28.5223 82.7945 28.0033 82.9557C27.9979 82.9557 27.9927 82.9579 27.9888 82.9617C27.985 82.9656 27.9829 82.9708 27.9829 82.9762C27.9829 82.9816 27.985 82.9868 27.9888 82.9907C27.9927 82.9945 27.9979 82.9966 28.0033 82.9966C28.5828 82.9522 29.1655 82.9797 29.7382 83.0785C30.6384 84.4806 31.5058 85.8936 32.3405 87.3175C32.4755 87.4443 32.6842 87.3543 32.6024 87.2315Z" fill="white"/>
<path d="M24.7471 79.3632C23.7539 79.2981 22.7573 79.4202 21.8093 79.7233C21.7847 79.7233 21.8093 79.7724 21.8093 79.7683C22.7756 79.6054 23.7514 79.5057 24.7307 79.4696C24.8003 79.4573 24.8125 79.3714 24.7471 79.3632Z" fill="white"/>
<path d="M15.9336 67.8082C15.4819 67.7739 15.0276 67.8015 14.5833 67.89C14.5751 67.8927 14.568 67.8979 14.5629 67.9049C14.5579 67.9119 14.5552 67.9203 14.5552 67.9289C14.5552 67.9375 14.5579 67.9459 14.5629 67.9529C14.568 67.9599 14.5751 67.9651 14.5833 67.9678C15.0293 67.9228 15.4671 67.9391 15.9131 67.9228C15.9283 67.9255 15.944 67.9221 15.9566 67.9132C15.9693 67.9044 15.9779 67.8909 15.9806 67.8757C15.9833 67.8605 15.9799 67.8449 15.9711 67.8322C15.9623 67.8196 15.9488 67.8109 15.9336 67.8082Z" fill="white"/>
<path d="M46.1589 120.861H23.356L26.6088 97.0474L27.4395 90.9426H42.0754L42.906 97.0474L46.1589 120.861Z" fill="#DBDBDB"/>
<path d="M42.9056 97.0474H26.6084L27.439 90.9426H42.075L42.9056 97.0474Z" fill="#C7C7C7"/>
<path d="M44.166 88.8232H25.3442V93.9951H44.166V88.8232Z" fill="#DBDBDB"/>
<path d="M219.639 12.2103C218.556 14.9656 217.919 17.8758 217.753 20.8315H210.216H210.122V20.6228L210.183 20.0377C210.275 19.0221 210.439 18.0143 210.674 17.0221C211.069 15.3985 211.638 13.8222 212.372 12.3208C212.386 12.2842 212.411 12.2533 212.445 12.2332C212.478 12.2132 212.517 12.2051 212.556 12.2103H219.627H219.639Z" fill="#C79AA1"/>
<path d="M219.41 31.4615H212.397C212.36 31.4653 212.322 31.4565 212.291 31.4364C212.26 31.4163 212.237 31.3862 212.225 31.351C211.415 29.6616 210.83 27.8733 210.486 26.0319C210.312 25.1457 210.197 24.249 210.142 23.3477C210.142 23.3191 210.142 23.2863 210.122 23.2577V23.0449H210.236H217.63C217.765 23.0449 217.761 23.0449 217.769 23.184C217.818 23.7937 217.859 24.4115 217.916 25.0212C218.014 25.9929 218.171 26.9576 218.387 27.9099C218.64 29.0754 218.972 30.2224 219.381 31.3429C219.385 31.3838 219.393 31.4206 219.41 31.4615Z" fill="#C79AA1"/>
<path d="M248.902 33.6877C248.902 33.7286 248.861 33.7613 248.845 33.79C248.249 34.6987 247.584 35.5605 246.856 36.3677C245.979 37.3591 245.003 38.2585 243.943 39.0519C242.903 39.836 241.792 40.521 240.625 41.0977C239.5 41.6592 238.326 42.1167 237.118 42.4643C236.159 42.7373 235.183 42.9451 234.197 43.0863L233.91 43.1354H233.742L233.587 43.0413L233.775 42.9103C235.918 41.4543 237.792 39.638 239.315 37.542C240.177 36.3605 240.934 35.1065 241.578 33.7941C241.589 33.7585 241.612 33.7279 241.644 33.7077C241.675 33.6875 241.713 33.679 241.75 33.6836H248.923L248.902 33.6877Z" fill="#C79AA1"/>
<path d="M241.889 20.8233H232.036V12.2308H232.151H239.724C239.758 12.2267 239.791 12.2348 239.819 12.2536C239.847 12.2724 239.867 12.3006 239.876 12.3331C240.585 13.9509 241.111 15.6432 241.443 17.3781C241.621 18.28 241.748 19.1912 241.823 20.1073C241.848 20.3282 241.868 20.5696 241.889 20.8233Z" fill="#C79AA1"/>
<path d="M241.828 23.1233C241.828 23.3238 241.828 23.5325 241.8 23.7289C241.759 24.2076 241.722 24.6904 241.656 25.165C241.562 25.8238 241.464 26.4867 241.329 27.1413C241.037 28.5778 240.609 29.9835 240.052 31.3394C240.044 31.3791 240.02 31.4142 239.987 31.4376C239.954 31.4611 239.913 31.4713 239.872 31.4662H231.979V23.1233H241.828Z" fill="#C79AA1"/>
<path d="M229.815 12.2679V20.889H220.195C220.195 20.6681 220.216 20.4553 220.24 20.2425C220.289 19.7597 220.326 19.2769 220.404 18.7982C220.523 18.0699 220.645 17.3375 220.813 16.6132C221.13 15.151 221.592 13.7242 222.192 12.3538C222.203 12.32 222.225 12.2911 222.255 12.2717C222.285 12.2523 222.32 12.2438 222.356 12.2474H229.815V12.2679Z" fill="#C79AA1"/>
<path d="M229.827 23.2374C229.827 25.9379 229.827 28.6398 229.827 31.343V31.4617H222.13C222.093 31.4669 222.054 31.4582 222.023 31.437C221.991 31.4159 221.968 31.3839 221.958 31.3471C221.374 29.9487 220.936 28.494 220.649 27.0058C220.506 26.2407 220.395 25.4674 220.301 24.694C220.236 24.1907 220.219 23.6793 220.187 23.1678C220.185 23.1501 220.185 23.1323 220.187 23.1146H229.692C229.802 23.1105 229.827 23.1392 229.827 23.2374Z" fill="#C79AA1"/>
<path d="M252.335 20.8846H244.263C244.099 17.9116 243.464 14.9835 242.38 12.2102H249.905C249.942 12.2052 249.98 12.213 250.012 12.2324C250.044 12.2517 250.068 12.2815 250.081 12.3166C250.943 14.0231 251.569 15.8387 251.943 17.7136C252.144 18.7115 252.281 19.7216 252.352 20.7373L252.335 20.8846Z" fill="#C79AA1"/>
<path d="M252.34 23.0576C252.34 23.254 252.34 23.4381 252.315 23.6223C252.263 24.3505 252.175 25.0757 252.049 25.795C251.75 27.4649 251.252 29.0927 250.564 30.6436C250.458 30.8932 250.335 31.1387 250.224 31.3883C250.217 31.4131 250.201 31.4345 250.179 31.4487C250.158 31.4629 250.132 31.4691 250.106 31.466H242.589C242.679 31.2083 242.769 30.9587 242.855 30.705C243.291 29.4224 243.624 28.1077 243.854 26.7729C244.027 25.8053 244.143 24.8285 244.201 23.8473C244.201 23.6141 244.23 23.3809 244.238 23.1517C244.238 23.0903 244.238 23.0576 244.324 23.0658C244.349 23.0678 244.373 23.0678 244.398 23.0658L252.34 23.0576Z" fill="#C79AA1"/>
<path d="M248.681 10.0131V10.0499H248.575C246.222 10.0499 243.869 10.0499 241.517 10.0499C241.481 10.0543 241.444 10.0466 241.413 10.0281C241.382 10.0096 241.358 9.9813 241.345 9.94765C240.407 8.07249 239.23 6.3271 237.842 4.7553C237.024 3.8486 236.124 3.01863 235.154 2.27573C234.671 1.90748 234.172 1.55969 233.681 1.20371L233.599 1.14234L233.697 1.07278C233.697 1.03186 233.669 0.982762 233.648 0.921387C236.138 1.20082 238.557 1.92714 240.788 3.06543C243.977 4.65789 246.697 7.05211 248.681 10.0131Z" fill="#C79AA1"/>
<path d="M228.448 43.0414C228.382 43.0621 228.313 43.0731 228.244 43.0741C227.469 42.9728 226.701 42.8239 225.944 42.6281C224.531 42.2669 223.159 41.7581 221.853 41.1101C220.356 40.3651 218.954 39.4448 217.675 38.3687C216.766 37.6075 215.926 36.7667 215.167 35.8564C214.599 35.1675 214.075 34.4432 213.6 33.6878C213.586 33.6662 213.575 33.6428 213.567 33.6182H213.681C215.875 33.6182 218.064 33.6182 220.257 33.6182C220.292 33.6153 220.327 33.6242 220.357 33.6435C220.386 33.6627 220.409 33.6912 220.42 33.7246C221.106 35.1071 221.915 36.4245 222.839 37.6608C223.693 38.7846 224.64 39.8344 225.67 40.7991C226.518 41.6013 227.429 42.3334 228.395 42.9882L228.448 43.0414Z" fill="#C79AA1"/>
<path d="M228.362 1.13002C228.059 1.35098 227.707 1.60057 227.364 1.86244C226.216 2.75594 225.15 3.74859 224.176 4.82891C222.859 6.26505 221.735 7.86762 220.833 9.59573C220.776 9.7062 220.727 9.82077 220.661 9.92306C220.65 9.94062 220.635 9.95554 220.617 9.96683C220.6 9.97811 220.58 9.98551 220.559 9.98853C220.441 9.98853 220.322 9.98853 220.203 9.98853H213.779C217.36 4.93529 222.167 1.89517 228.288 0.986816C228.288 1.01546 228.26 1.0441 228.243 1.06865L228.362 1.13002Z" fill="#C79AA1"/>
<path d="M238.947 33.6919C238.034 35.2842 236.935 36.7622 235.673 38.0946C234.565 39.289 233.317 40.3467 231.958 41.2452V33.6919H238.947Z" fill="#C79AA1"/>
<path d="M229.814 33.696V41.102C227.033 39.1953 224.742 36.6575 223.128 33.696H229.814Z" fill="#C79AA1"/>
<path d="M238.73 9.98491H232.036V2.94312C233.409 3.83838 234.67 4.89473 235.792 6.08962C236.902 7.28405 237.887 8.58932 238.73 9.98491Z" fill="#C79AA1"/>
<path d="M229.815 3.14307V10.0416H223.391C224.962 7.27072 227.162 4.90771 229.815 3.14307Z" fill="#C79AA1"/>
<path d="M102.342 38.5405H46.1099V1.91992H102.342V38.5405ZM46.519 38.1313H101.933V2.32909H46.519V38.1313Z" fill="#C79AA1"/>
<path d="M102.342 7.14092H46.1099V1.91992H102.342V7.14092ZM46.519 6.73175H101.933V2.32909H46.519V6.73175Z" fill="#C79AA1"/>
<path d="M50.832 4.5798C50.832 4.82258 50.76 5.0599 50.6251 5.26177C50.4902 5.46363 50.2985 5.62096 50.0742 5.71387C49.8499 5.80677 49.6031 5.83108 49.365 5.78372C49.1269 5.73636 48.9082 5.61945 48.7365 5.44778C48.5648 5.27611 48.4479 5.05739 48.4005 4.81928C48.3532 4.58116 48.3775 4.33435 48.4704 4.11006C48.5633 3.88576 48.7206 3.69405 48.9225 3.55917C49.1244 3.42429 49.3617 3.35229 49.6045 3.35229C49.93 3.35229 50.2422 3.48162 50.4724 3.71182C50.7026 3.94203 50.832 4.25425 50.832 4.5798Z" fill="#C7C7C7"/>
<path d="M55.7709 4.57948C55.7709 4.82312 55.6984 5.06125 55.5625 5.26353C55.4267 5.46581 55.2338 5.6231 55.0083 5.71538C54.7828 5.80765 54.535 5.83074 54.2963 5.78169C54.0577 5.73265 53.839 5.61369 53.6682 5.43997C53.4974 5.26624 53.3821 5.04561 53.3371 4.80617C53.292 4.56672 53.3193 4.3193 53.4153 4.09539C53.5114 3.87148 53.6719 3.68122 53.8764 3.54883C54.081 3.41644 54.3203 3.34792 54.5639 3.35198C54.7241 3.35195 54.8828 3.38384 55.0306 3.44578C55.1784 3.50771 55.3124 3.59846 55.4247 3.71272C55.5371 3.82698 55.6255 3.96247 55.685 4.11128C55.7444 4.2601 55.7736 4.41926 55.7709 4.57948Z" fill="#C79AA1"/>
<path d="M60.7123 4.5798C60.7123 4.82258 60.6403 5.0599 60.5055 5.26177C60.3706 5.46363 60.1789 5.62096 59.9546 5.71387C59.7303 5.80677 59.4835 5.83108 59.2454 5.78372C59.0072 5.73636 58.7885 5.61945 58.6169 5.44778C58.4452 5.27611 58.3283 5.05739 58.2809 4.81928C58.2335 4.58116 58.2579 4.33435 58.3508 4.11006C58.4437 3.88576 58.601 3.69405 58.8029 3.55917C59.0047 3.42429 59.2421 3.35229 59.4848 3.35229C59.8104 3.35229 60.1226 3.48162 60.3528 3.71182C60.583 3.94203 60.7123 4.25425 60.7123 4.5798Z" fill="#C53F3F"/>
</g>
<g filter="url(#filter1_d_272_535)">
<path d="M139.477 160.006C213.772 160.006 274 152.437 274 143.099C274 133.762 213.772 126.193 139.477 126.193C65.1828 126.193 4.95508 133.762 4.95508 143.099C4.95508 152.437 65.1828 160.006 139.477 160.006Z" fill="#C79AA1"/>
</g>
<g filter="url(#filter2_d_272_535)">
<path d="M6.79199 120.861L39.9633 120.763L73.1346 120.726L139.477 120.656L205.82 120.726L238.991 120.763L272.162 120.861L238.991 120.963L205.82 120.996L139.477 121.066L73.1346 120.996L39.9633 120.959L6.79199 120.861Z" fill="#263238"/>
</g>
<g filter="url(#filter3_d_272_535)">
<path d="M218.742 20.3079H59.9067V126.557H218.742V20.3079Z" fill="#DBDBDB"/>
<path d="M217.588 21.605H61.0605V125.26H217.588V21.605Z" fill="#263238"/>
<path d="M239.429 134.523H39.2188V141.815H239.429V134.523Z" fill="#C7C7C7"/>
<path d="M39.2188 134.523L59.9063 126.557H218.741L239.429 134.523H39.2188Z" fill="#DBDBDB"/>
<path d="M61.7563 131.7L75.1075 126.557H203.546L216.897 131.7H61.7563Z" fill="#263238"/>
<path d="M208.742 29.4814H69.9067V117.387H208.742V29.4814Z" fill="white"/>
<path d="M208.746 29.4814H69.792V32.8653H208.746V29.4814Z" fill="#455A64"/>
<path d="M72.4798 31.1755C72.4798 31.3422 72.43 31.5052 72.3369 31.6435C72.2438 31.7819 72.1116 31.8893 71.9571 31.9522C71.8027 32.015 71.633 32.0304 71.4697 31.9963C71.3065 31.9623 71.1571 31.8803 71.0406 31.761C70.9242 31.6416 70.846 31.4902 70.8159 31.3262C70.7859 31.1622 70.8055 30.9929 70.8721 30.8401C70.9388 30.6872 71.0494 30.5576 71.1901 30.468C71.3307 30.3783 71.4948 30.3326 71.6615 30.3367C71.8804 30.342 72.0885 30.4327 72.2414 30.5895C72.3943 30.7462 72.4799 30.9565 72.4798 31.1755Z" fill="#C7C7C7"/>
<path d="M75.9046 31.1755C75.9046 31.3422 75.8548 31.5052 75.7617 31.6435C75.6686 31.7819 75.5364 31.8893 75.3819 31.9522C75.2275 32.015 75.0578 32.0304 74.8945 31.9963C74.7313 31.9623 74.5819 31.8803 74.4654 31.761C74.349 31.6416 74.2708 31.4902 74.2408 31.3262C74.2107 31.1622 74.2303 30.9929 74.2969 30.8401C74.3636 30.6872 74.4742 30.5576 74.6149 30.468C74.7555 30.3783 74.9196 30.3326 75.0863 30.3367C75.3052 30.342 75.5133 30.4327 75.6662 30.5895C75.8191 30.7462 75.9047 30.9565 75.9046 31.1755Z" fill="white"/>
<path d="M79.3294 31.1755C79.3294 31.3414 79.2803 31.5035 79.1881 31.6415C79.0959 31.7794 78.9649 31.8869 78.8116 31.9504C78.6584 32.0139 78.4897 32.0305 78.327 31.9981C78.1643 31.9658 78.0148 31.8859 77.8975 31.7686C77.7802 31.6513 77.7003 31.5018 77.668 31.3391C77.6356 31.1764 77.6522 31.0077 77.7157 30.8545C77.7792 30.7012 77.8867 30.5702 78.0246 30.478C78.1626 30.3859 78.3248 30.3367 78.4906 30.3367C78.7131 30.3367 78.9265 30.425 79.0838 30.5823C79.2411 30.7397 79.3294 30.953 79.3294 31.1755Z" fill="#C53F3F"/>
<path d="M76.5761 77.7837H130.566V39.9724L76.5761 39.9724V77.7837Z" fill="#EBEBEB"/>
<path d="M82.8857 50.7212C82.8857 51.6058 83.148 52.4704 83.6394 53.2059C84.1309 53.9413 84.8293 54.5145 85.6465 54.853C86.4637 55.1915 87.3629 55.2801 88.2304 55.1075C89.098 54.935 89.8948 54.509 90.5203 53.8836C91.1457 53.2581 91.5717 52.4613 91.7442 51.5937C91.9168 50.7262 91.8282 49.827 91.4897 49.0098C91.1513 48.1926 90.578 47.4941 89.8426 47.0027C89.1071 46.5113 88.2425 46.249 87.358 46.249C86.1718 46.249 85.0343 46.7202 84.1956 47.5589C83.3569 48.3976 82.8857 49.5351 82.8857 50.7212Z" fill="#DBDBDB"/>
<path d="M100.541 69.6373H130.569L115.553 49.2893L100.541 69.6373Z" fill="#C7C7C7"/>
<path d="M88.7817 69.6578H113.569L101.175 56.4048L88.7817 69.6578Z" fill="#DBDBDB"/>
<path d="M130.566 69.6372H76.5762V77.7838H130.566V69.6372Z" fill="#DBDBDB"/>
<path d="M138.246 110.145H168.414V82.8491H138.246V110.145Z" fill="#EBEBEB"/>
<path d="M142.145 88.815C142.009 89.4953 142.095 90.2012 142.392 90.8284C142.688 91.4557 143.178 91.971 143.79 92.2982C144.401 92.6254 145.102 92.7472 145.788 92.6455C146.474 92.5439 147.11 92.2242 147.6 91.7337C148.091 91.2432 148.41 90.6079 148.512 89.9217C148.614 89.2355 148.492 88.5348 148.165 87.9232C147.837 87.3115 147.322 86.8214 146.695 86.5251C146.068 86.2289 145.362 86.1423 144.681 86.2782C144.055 86.4032 143.48 86.7109 143.029 87.1623C142.577 87.6138 142.27 88.1889 142.145 88.815Z" fill="#DBDBDB"/>
<path d="M146.74 104.261H168.418L157.579 89.5718L146.74 104.261Z" fill="#C7C7C7"/>
<path d="M138.25 104.273H156.148L147.199 94.707L138.25 104.273Z" fill="#DBDBDB"/>
<path d="M168.418 104.261H138.25V110.14H168.418V104.261Z" fill="#DBDBDB"/>
<path d="M186.643 39.9766H138.25V42.4193H186.643V39.9766Z" fill="#A6A6A6"/>
<path d="M197.167 45.0298H138.25V47.4725H197.167V45.0298Z" fill="#DBDBDB"/>
<path d="M197.167 50.083H138.25V52.5257H197.167V50.083Z" fill="#DBDBDB"/>
<path d="M197.167 55.1401H138.25V57.5829H197.167V55.1401Z" fill="#DBDBDB"/>
<path d="M197.167 60.1934H138.25V62.6361H197.167V60.1934Z" fill="#DBDBDB"/>
<path d="M177.363 65.2463H138.25V67.6891H177.363V65.2463Z" fill="#DBDBDB"/>
<path d="M192.51 82.8452H171.106V85.2511H192.51V82.8452Z" fill="#A6A6A6"/>
<path d="M197.162 87.8245H171.106V90.2304H197.162V87.8245Z" fill="#DBDBDB"/>
<path d="M197.162 92.8044H171.106V95.2104H197.162V92.8044Z" fill="#DBDBDB"/>
<path d="M197.162 97.7798H171.106V100.186H197.162V97.7798Z" fill="#DBDBDB"/>
<path d="M197.162 102.76H171.106V105.165H197.162V102.76Z" fill="#DBDBDB"/>
<path d="M188.791 107.739H171.106V110.145H188.791V107.739Z" fill="#DBDBDB"/>
<path d="M197.167 70.6064H138.25V77.7833H197.167V70.6064Z" fill="#C92D2D"/>
<path d="M130.566 82.8452H76.5762V90.022H130.566V82.8452Z" fill="#A6A6A6"/>
<path d="M130.566 92.6367H76.5762V95.0631H130.566V92.6367Z" fill="#DBDBDB"/>
<path d="M130.566 97.6611H76.5762V100.088H130.566V97.6611Z" fill="#DBDBDB"/>
<path d="M130.566 102.69H76.5762V105.116H130.566V102.69Z" fill="#DBDBDB"/>
<path d="M113.569 107.714H76.5762V110.141H113.569V107.714Z" fill="#DBDBDB"/>
<path d="M208.742 32.8613H205.031V117.383H208.742V32.8613Z" fill="#DBDBDB"/>
<path d="M206.884 77.0964C206.63 77.0964 206.386 76.9955 206.207 76.8159C206.027 76.6364 205.926 76.3929 205.926 76.1389V34.6574C205.926 34.4035 206.027 34.1599 206.207 33.9804C206.386 33.8008 206.63 33.7 206.884 33.7C207.138 33.7 207.381 33.8008 207.561 33.9804C207.74 34.1599 207.841 34.4035 207.841 34.6574V76.1389C207.841 76.3929 207.74 76.6364 207.561 76.8159C207.381 76.9955 207.138 77.0964 206.884 77.0964Z" fill="#A6A6A6"/>
</g>
<g filter="url(#filter4_d_272_535)">
<path d="M123.135 77.0025V136.978C123.123 138.27 122.6 139.505 121.679 140.411C120.759 141.318 119.517 141.822 118.225 141.815H23.9525C22.6607 141.822 21.4185 141.318 20.4982 140.411C19.5778 139.505 19.0544 138.27 19.0425 136.978V77.0025C19.0544 75.7111 19.578 74.4772 20.4984 73.5713C21.4189 72.6654 22.6611 72.1615 23.9525 72.1703H118.2C118.842 72.1627 119.479 72.2818 120.074 72.5207C120.67 72.7596 121.212 73.1136 121.67 73.5625C122.129 74.0114 122.494 74.5463 122.745 75.1366C122.997 75.7269 123.129 76.361 123.135 77.0025Z" fill="#455A64"/>
<path d="M115.987 75.0959H26.3828V138.795H115.987V75.0959Z" fill="white"/>
<path d="M31.7146 107.371H71.4653V79.5356H31.7146V107.371Z" fill="#EBEBEB"/>
<path d="M36.3663 87.4525C36.3703 88.099 36.5657 88.7299 36.9279 89.2655C37.29 89.8011 37.8026 90.2174 38.4011 90.4621C38.9996 90.7067 39.6571 90.7686 40.2907 90.64C40.9243 90.5114 41.5056 90.198 41.9614 89.7394C42.4171 89.2808 42.7268 88.6976 42.8515 88.0632C42.9761 87.4287 42.9101 86.7716 42.6618 86.1747C42.4135 85.5778 41.9939 85.0677 41.4561 84.709C40.9182 84.3502 40.2862 84.1587 39.6396 84.1587C39.208 84.1587 38.7807 84.244 38.3822 84.4098C37.9837 84.5756 37.622 84.8185 37.3178 85.1247C37.0135 85.4308 36.7728 85.7941 36.6095 86.1936C36.4463 86.5931 36.3636 87.0209 36.3663 87.4525Z" fill="#DBDBDB"/>
<path d="M49.3589 101.377H71.4663L60.4105 86.397L49.3589 101.377Z" fill="#C7C7C7"/>
<path d="M40.6997 101.389H58.9486L49.8242 91.6343L40.6997 101.389Z" fill="#DBDBDB"/>
<path d="M71.4656 101.377H31.7148V107.375H71.4656V101.377Z" fill="#DBDBDB"/>
<path d="M84.0757 133.82H110.655V115.207H84.0757V133.82Z" fill="#EBEBEB"/>
<path d="M87.1807 120.501C87.1799 120.938 87.3085 121.365 87.5504 121.728C87.7922 122.091 88.1364 122.374 88.5393 122.542C88.9422 122.709 89.3858 122.754 89.8138 122.669C90.2419 122.584 90.6353 122.375 90.9441 122.066C91.2529 121.758 91.4634 121.365 91.5488 120.937C91.6343 120.509 91.5908 120.066 91.424 119.662C91.2572 119.259 90.9745 118.915 90.6118 118.672C90.249 118.43 89.8225 118.3 89.3861 118.3C89.0967 118.3 88.81 118.356 88.5424 118.466C88.2749 118.577 88.0317 118.739 87.8269 118.943C87.622 119.148 87.4595 119.391 87.3486 119.658C87.2377 119.925 87.1807 120.212 87.1807 120.501Z" fill="#DBDBDB"/>
<path d="M95.876 129.81H110.655L103.266 119.794L95.876 129.81Z" fill="#C7C7C7"/>
<path d="M90.0864 129.822H102.288L96.1871 123.296L90.0864 129.822Z" fill="#DBDBDB"/>
<path d="M110.656 129.814H84.0762V133.824H110.656V129.814Z" fill="#DBDBDB"/>
<path d="M110.659 79.5393H74.894V86.3397H110.659V79.5393Z" fill="#C92D2D"/>
<path d="M110.659 88.9214H74.894V89.8747H110.659V88.9214Z" fill="#DBDBDB"/>
<path d="M110.659 91.1597H74.894V92.113H110.659V91.1597Z" fill="#DBDBDB"/>
<path d="M110.659 93.3982H74.894V94.3516H110.659V93.3982Z" fill="#DBDBDB"/>
<path d="M110.659 95.636H74.894V96.5893H110.659V95.636Z" fill="#DBDBDB"/>
<path d="M110.659 97.8743H74.894V98.8276H110.659V97.8743Z" fill="#DBDBDB"/>
<path d="M110.659 100.112H74.894V101.066H110.659V100.112Z" fill="#DBDBDB"/>
<path d="M95.4548 102.351H74.894V103.304H95.4548V102.351Z" fill="#DBDBDB"/>
<path d="M80.2952 128.64H44.5298V129.593H80.2952V128.64Z" fill="#DBDBDB"/>
<path d="M80.2952 115.211H44.5298V116.164H80.2952V115.211Z" fill="#DBDBDB"/>
<path d="M80.2952 117.449H44.5298V118.402H80.2952V117.449Z" fill="#DBDBDB"/>
<path d="M80.2952 119.687H44.5298V120.64H80.2952V119.687Z" fill="#DBDBDB"/>
<path d="M68.9203 121.925H44.5298V122.879H68.9203V121.925Z" fill="#DBDBDB"/>
<path d="M80.2952 126.401H44.5298V127.355H80.2952V126.401Z" fill="#DBDBDB"/>
<path d="M68.9203 130.877H44.5298V131.831H68.9203V130.877Z" fill="#DBDBDB"/>
<path d="M110.66 110.48H31.7148V112.731H110.66V110.48Z" fill="#455A64"/>
<path d="M41.9359 115.211H31.7148V133.824H41.9359V115.211Z" fill="#C92D2D"/>
<path d="M23.3546 99.4087H23.2932C23.0107 99.4087 22.7817 99.6377 22.7817 99.9202V114.057C22.7817 114.339 23.0107 114.568 23.2932 114.568H23.3546C23.637 114.568 23.866 114.339 23.866 114.057V99.9202C23.866 99.6377 23.637 99.4087 23.3546 99.4087Z" fill="#37474F"/>
<path d="M121.883 106.987C121.883 107.375 121.769 107.756 121.553 108.079C121.338 108.403 121.031 108.655 120.672 108.804C120.313 108.954 119.918 108.993 119.536 108.917C119.155 108.841 118.805 108.654 118.53 108.379C118.255 108.104 118.068 107.754 117.992 107.373C117.916 106.991 117.956 106.596 118.105 106.237C118.254 105.878 118.506 105.571 118.83 105.356C119.154 105.14 119.534 105.026 119.923 105.027C120.442 105.028 120.94 105.235 121.307 105.602C121.675 105.969 121.882 106.467 121.883 106.987Z" fill="#37474F"/>
</g>
<g filter="url(#filter5_d_272_535)">
<path d="M253.68 59.3262H217.219C216.233 59.337 215.292 59.7385 214.601 60.4427C213.911 61.1469 213.528 62.0962 213.537 63.0823V138.124C213.529 139.11 213.912 140.058 214.602 140.762C215.293 141.466 216.234 141.868 217.219 141.88H253.672C254.658 141.868 255.599 141.466 256.289 140.762C256.979 140.058 257.362 139.11 257.355 138.124V63.0905C257.366 62.1044 256.985 61.1542 256.296 60.4485C255.607 59.7427 254.666 59.3391 253.68 59.3262ZM255.067 135.804C255.067 137.78 253.586 139.376 251.761 139.376H219.151C217.322 139.376 215.844 137.78 215.844 135.804V65.9261C215.844 61.9039 217.322 61.7075 219.151 61.7075H225.697C226.078 61.7075 226.389 62.1167 226.389 62.6732V62.9023C226.389 64.1584 227.076 64.1625 227.919 64.1625H242.997C243.844 64.1625 244.523 64.1625 244.523 62.9023V62.6814C244.523 62.1453 244.83 61.7157 245.219 61.7157H251.765C253.59 61.7157 255.071 62.2517 255.071 65.9342L255.067 135.804Z" fill="#455A64"/>
<path d="M237.515 62.5953H233.394C233.327 62.5953 233.263 62.5685 233.215 62.521C233.167 62.4734 233.141 62.4089 233.141 62.3416C233.141 62.2743 233.167 62.2098 233.215 62.1622C233.263 62.1146 233.327 62.0879 233.394 62.0879H237.515C237.582 62.0879 237.647 62.1145 237.695 62.1619C237.744 62.2094 237.771 62.2739 237.772 62.3416C237.771 62.4092 237.744 62.4737 237.695 62.5212C237.647 62.5687 237.582 62.5953 237.515 62.5953Z" fill="white"/>
<path d="M255.068 65.9258V135.804C255.068 137.78 253.587 139.376 251.762 139.376H219.151C217.322 139.376 215.845 137.78 215.845 135.804V65.9258C215.845 61.9037 217.322 61.7073 219.151 61.7073H225.698C226.079 61.7073 226.389 62.1164 226.389 62.6729V62.902C226.389 64.1582 227.077 64.1623 227.92 64.1623H242.998C243.845 64.1623 244.524 64.1623 244.524 62.902V62.6811C244.524 62.1451 244.831 61.7155 245.219 61.7155H251.766C253.587 61.7073 255.068 62.2433 255.068 65.9258Z" fill="white"/>
<path d="M255.067 65.9258V71.1386H215.84V65.9258C215.84 61.9037 217.322 61.7073 219.15 61.7073H225.697C226.074 61.7073 226.385 62.1164 226.385 62.6729V62.902C226.385 64.1582 227.072 64.1623 227.911 64.1623H242.997C243.844 64.1623 244.527 64.1623 244.527 62.902V62.6811C244.527 62.1451 244.834 61.7155 245.219 61.7155H251.765C253.586 61.7073 255.067 62.2433 255.067 65.9258Z" fill="#C92D2D"/>
<path d="M219.56 68.5932L218.402 67.5089L219.56 66.4246L219.74 66.6128L218.786 67.5089L219.74 68.4049L219.56 68.5932Z" fill="white"/>
<path d="M251.528 68.6916H250.71V68.4093C250.71 68.4014 250.707 68.3938 250.703 68.3872C250.699 68.3807 250.693 68.3756 250.685 68.3724L250.595 68.3192C250.588 68.3162 250.581 68.3146 250.573 68.3146C250.565 68.3146 250.557 68.3162 250.55 68.3192L250.301 68.4665L249.892 67.7587L250.141 67.6155C250.146 67.609 250.149 67.6011 250.149 67.593C250.149 67.5848 250.146 67.5769 250.141 67.5705V67.4723C250.146 67.4658 250.149 67.4579 250.149 67.4498C250.149 67.4416 250.146 67.4337 250.141 67.4273L249.892 67.284L250.301 66.5762L250.55 66.7194C250.557 66.7233 250.565 66.7254 250.573 66.7254C250.581 66.7254 250.589 66.7233 250.595 66.7194L250.685 66.6662C250.693 66.6631 250.699 66.6579 250.703 66.6514C250.707 66.6449 250.71 66.6372 250.71 66.6294V66.3389H251.528V66.6294C251.528 66.6372 251.531 66.6449 251.535 66.6514C251.539 66.6579 251.546 66.6631 251.553 66.6662L251.643 66.7194C251.65 66.7233 251.657 66.7254 251.665 66.7254C251.673 66.7254 251.681 66.7233 251.688 66.7194L251.937 66.5762L252.347 67.284L252.097 67.4273C252.092 67.4337 252.089 67.4416 252.089 67.4498C252.089 67.4579 252.092 67.4658 252.097 67.4723V67.5705C252.092 67.5769 252.089 67.5848 252.089 67.593C252.089 67.6011 252.092 67.609 252.097 67.6155L252.347 67.7587L251.937 68.4665L251.688 68.3233C251.681 68.3194 251.673 68.3173 251.665 68.3173C251.657 68.3173 251.65 68.3194 251.643 68.3233L251.553 68.3765C251.546 68.3797 251.539 68.3848 251.535 68.3913C251.531 68.3979 251.528 68.4055 251.528 68.4133V68.6916ZM250.915 68.487H251.324V68.4093C251.324 68.3637 251.337 68.3191 251.361 68.2803C251.385 68.2414 251.418 68.2096 251.459 68.1883C251.483 68.177 251.506 68.1633 251.528 68.1474C251.568 68.1244 251.613 68.1123 251.659 68.1123C251.705 68.1123 251.75 68.1244 251.79 68.1474L251.864 68.1924L252.068 67.8364L251.995 67.7914C251.955 67.7692 251.923 67.7363 251.901 67.6965C251.879 67.6567 251.869 67.6116 251.872 67.5664V67.4845C251.869 67.4388 251.88 67.3931 251.901 67.3527C251.923 67.3123 251.955 67.2786 251.995 67.2554L252.068 67.2145L251.864 66.8585L251.79 66.9035C251.751 66.9266 251.707 66.9387 251.661 66.9387C251.616 66.9387 251.571 66.9266 251.532 66.9035L251.459 66.8626C251.418 66.8413 251.385 66.8095 251.361 66.7706C251.337 66.7318 251.324 66.6872 251.324 66.6416V66.5557H250.915V66.6416C250.914 66.6872 250.901 66.7318 250.877 66.7706C250.854 66.8095 250.82 66.8413 250.78 66.8626C250.755 66.8739 250.732 66.8876 250.71 66.9035C250.67 66.9265 250.625 66.9386 250.579 66.9386C250.533 66.9386 250.488 66.9265 250.448 66.9035L250.374 66.8585L250.17 67.2145L250.244 67.2554C250.283 67.2786 250.315 67.3123 250.337 67.3527C250.359 67.3931 250.369 67.4388 250.366 67.4845V67.5664C250.369 67.6122 250.359 67.6578 250.337 67.6982C250.315 67.7386 250.283 67.7723 250.244 67.7955L250.17 67.8364L250.374 68.1924L250.448 68.1474C250.488 68.1244 250.533 68.1123 250.579 68.1123C250.625 68.1123 250.67 68.1244 250.71 68.1474C250.732 68.1633 250.755 68.177 250.78 68.1883C250.82 68.2096 250.854 68.2414 250.877 68.2803C250.901 68.3191 250.914 68.3637 250.915 68.4093V68.487ZM251.119 68.1147C250.999 68.1147 250.882 68.0791 250.783 68.0126C250.683 67.9461 250.605 67.8515 250.56 67.7408C250.514 67.6302 250.502 67.5084 250.525 67.3909C250.549 67.2735 250.606 67.1656 250.691 67.0809C250.776 66.9962 250.884 66.9385 251.001 66.9152C251.118 66.8918 251.24 66.9038 251.351 66.9496C251.462 66.9955 251.556 67.0731 251.623 67.1727C251.689 67.2722 251.725 67.3893 251.725 67.5091C251.724 67.6694 251.659 67.8228 251.546 67.9361C251.433 68.0494 251.279 68.1136 251.119 68.1147ZM251.119 67.1081C251.038 67.1081 250.959 67.1321 250.892 67.1771C250.825 67.222 250.772 67.2859 250.741 67.3607C250.71 67.4355 250.702 67.5177 250.718 67.5971C250.734 67.6765 250.773 67.7494 250.83 67.8066C250.887 67.8638 250.96 67.9028 251.039 67.9186C251.119 67.9344 251.201 67.9263 251.276 67.8953C251.35 67.8643 251.414 67.8119 251.459 67.7446C251.504 67.6773 251.528 67.5982 251.528 67.5173C251.528 67.4088 251.485 67.3047 251.408 67.2279C251.332 67.1512 251.228 67.1081 251.119 67.1081Z" fill="white"/>
<path d="M224.556 63.2743L224.495 63.3397L224.458 63.3766C224.378 63.2949 224.282 63.23 224.177 63.1857C224.072 63.1415 223.958 63.1186 223.844 63.1186C223.73 63.1186 223.617 63.1415 223.511 63.1857C223.406 63.23 223.31 63.2949 223.23 63.3766L223.198 63.3397L223.136 63.2784C223.16 63.2531 223.186 63.2298 223.214 63.2088C223.27 63.1618 223.332 63.1219 223.398 63.0901C223.476 63.0525 223.559 63.025 223.644 63.0083H223.766H223.955C224.031 63.0178 224.107 63.0356 224.18 63.0615C224.232 63.0819 224.283 63.1065 224.331 63.1351C224.383 63.1631 224.432 63.196 224.478 63.2333L224.544 63.2947L224.556 63.2743Z" fill="white"/>
<path d="M223.439 63.5734L223.341 63.4752C223.407 63.4084 223.486 63.3554 223.573 63.3192C223.661 63.283 223.754 63.2644 223.848 63.2644C223.942 63.2644 224.036 63.283 224.123 63.3192C224.21 63.3554 224.289 63.4084 224.356 63.4752L224.257 63.5775C224.149 63.4695 224.001 63.409 223.848 63.409C223.695 63.409 223.548 63.4695 223.439 63.5775V63.5734Z" fill="white"/>
<path d="M224.175 63.6715L224.077 63.7738C224.051 63.7466 224.019 63.725 223.984 63.7102C223.948 63.6955 223.911 63.6878 223.873 63.6878C223.835 63.6878 223.797 63.6955 223.762 63.7102C223.727 63.725 223.695 63.7466 223.668 63.7738L223.57 63.6715C223.651 63.5925 223.759 63.5483 223.873 63.5483C223.986 63.5483 224.094 63.5925 224.175 63.6715Z" fill="white"/>
<path d="M223.939 63.8638C223.939 63.8817 223.934 63.8991 223.924 63.914C223.914 63.9288 223.9 63.9404 223.883 63.9472C223.867 63.9541 223.848 63.9559 223.831 63.9524C223.813 63.9489 223.797 63.9403 223.785 63.9277C223.772 63.9151 223.764 63.899 223.76 63.8814C223.757 63.8639 223.758 63.8458 223.765 63.8293C223.772 63.8128 223.784 63.7987 223.798 63.7888C223.813 63.7788 223.831 63.7735 223.849 63.7735C223.861 63.773 223.873 63.7749 223.884 63.7792C223.895 63.7836 223.905 63.7902 223.914 63.7987C223.922 63.8072 223.929 63.8174 223.933 63.8286C223.938 63.8398 223.939 63.8518 223.939 63.8638Z" fill="white"/>
<path d="M218.402 63.4663C218.402 63.3979 218.429 63.3323 218.477 63.284C218.526 63.2357 218.591 63.2085 218.66 63.2085C218.728 63.2085 218.794 63.2355 218.843 63.2837C218.892 63.332 218.92 63.3975 218.921 63.4663C218.921 63.5357 218.894 63.6023 218.845 63.6514C218.796 63.7006 218.729 63.7281 218.66 63.7281C218.591 63.7271 218.525 63.699 218.477 63.65C218.429 63.601 218.402 63.535 218.402 63.4663Z" fill="white"/>
<path d="M219.221 63.4663C219.221 63.3979 219.248 63.3323 219.296 63.284C219.345 63.2357 219.41 63.2085 219.478 63.2085C219.547 63.2085 219.613 63.2355 219.662 63.2837C219.711 63.332 219.739 63.3975 219.74 63.4663C219.74 63.5357 219.713 63.6023 219.664 63.6514C219.615 63.7006 219.548 63.7281 219.478 63.7281C219.41 63.7271 219.344 63.699 219.296 63.65C219.248 63.601 219.221 63.535 219.221 63.4663Z" fill="white"/>
<path d="M220.039 63.4665C220.047 63.4032 220.078 63.345 220.126 63.3028C220.174 63.2606 220.235 63.2373 220.299 63.2373C220.363 63.2373 220.424 63.2606 220.472 63.3028C220.52 63.345 220.551 63.4032 220.559 63.4665C220.563 63.5034 220.56 63.5408 220.549 63.5763C220.538 63.6118 220.52 63.6445 220.495 63.6724C220.471 63.7003 220.441 63.7226 220.407 63.7379C220.373 63.7531 220.336 63.761 220.299 63.761C220.262 63.761 220.225 63.7531 220.191 63.7379C220.157 63.7226 220.127 63.7003 220.103 63.6724C220.078 63.6445 220.06 63.6118 220.049 63.5763C220.038 63.5408 220.035 63.5034 220.039 63.4665Z" fill="white"/>
<path d="M220.857 63.4665C220.857 63.4147 220.872 63.364 220.901 63.321C220.93 63.2779 220.971 63.2443 221.019 63.2245C221.066 63.2047 221.119 63.1995 221.17 63.2096C221.221 63.2197 221.267 63.2447 221.304 63.2813C221.341 63.3179 221.366 63.3646 221.376 63.4154C221.386 63.4662 221.381 63.5188 221.361 63.5667C221.341 63.6145 221.307 63.6554 221.264 63.6842C221.221 63.713 221.171 63.7283 221.119 63.7283C221.049 63.7283 220.983 63.7007 220.934 63.6516C220.885 63.6025 220.857 63.5359 220.857 63.4665Z" fill="white"/>
<path d="M221.676 63.4663C221.677 63.3975 221.705 63.332 221.754 63.2837C221.803 63.2355 221.869 63.2085 221.938 63.2085C222.006 63.2085 222.072 63.2357 222.12 63.284C222.168 63.3323 222.195 63.3979 222.195 63.4663C222.195 63.535 222.168 63.601 222.12 63.65C222.072 63.699 222.006 63.7271 221.938 63.7281C221.868 63.7281 221.802 63.7006 221.752 63.6514C221.703 63.6023 221.676 63.5357 221.676 63.4663Z" fill="white"/>
<path d="M252.122 64.0312H250.011V63.0574H252.122V64.0312ZM250.113 63.9289H252.02V63.1597H250.113V63.9289Z" fill="white"/>
<path d="M251.545 63.2217H250.182V63.8682H251.545V63.2217Z" fill="white"/>
<path d="M252.314 63.2822H252.125V63.806H252.314V63.2822Z" fill="white"/>
<path d="M221.802 135.104H221.504V136.474H220.947V135.775H219.961V136.474H219.405V135.104H219.106L220.456 133.712L221.802 135.104Z" fill="#EBEBEB"/>
<path d="M251.811 133.712H248.558V134.179H251.811V133.712Z" fill="#EBEBEB"/>
<path d="M251.811 134.858H248.558V135.325H251.811V134.858Z" fill="#EBEBEB"/>
<path d="M251.811 136.008H248.558V136.475H251.811V136.008Z" fill="#EBEBEB"/>
<path d="M221.741 78C221.395 78.2155 220.996 78.3297 220.589 78.3297C220.182 78.3297 219.783 78.2155 219.437 78C219.032 77.7495 218.72 77.3737 218.548 76.9298C218.376 76.4858 218.353 75.9978 218.483 75.5398C218.614 75.0818 218.89 74.6787 219.27 74.3917C219.65 74.1047 220.113 73.9495 220.589 73.9495C221.065 73.9495 221.528 74.1047 221.908 74.3917C222.288 74.6787 222.564 75.0818 222.695 75.5398C222.825 75.9978 222.802 76.4858 222.63 76.9298C222.458 77.3737 222.146 77.7495 221.741 78Z" fill="#DBDBDB"/>
<path d="M221.254 75.8891C221.254 76.0212 221.215 76.1503 221.142 76.2601C221.068 76.3699 220.964 76.4553 220.842 76.5057C220.72 76.556 220.585 76.569 220.456 76.5429C220.326 76.5169 220.207 76.4529 220.114 76.3593C220.021 76.2656 219.958 76.1464 219.933 76.0167C219.907 75.8871 219.921 75.7528 219.972 75.631C220.023 75.5093 220.11 75.4054 220.22 75.3326C220.33 75.2598 220.459 75.2214 220.591 75.2222C220.768 75.2233 220.936 75.294 221.06 75.419C221.185 75.5439 221.254 75.7129 221.254 75.8891Z" fill="white"/>
<path d="M221.741 77.726V78.0002C221.395 78.2157 220.996 78.3299 220.589 78.3299C220.182 78.3299 219.783 78.2157 219.437 78.0002V77.726C219.455 77.4324 219.583 77.1566 219.798 76.9549C220.012 76.7532 220.295 76.6409 220.589 76.6409C220.883 76.6409 221.166 76.7532 221.38 76.9549C221.594 77.1566 221.723 77.4324 221.741 77.726Z" fill="white"/>
<path d="M239.434 74.0762H225.522V75.2218H239.434V74.0762Z" fill="#EBEBEB"/>
<path d="M237.666 75.9875H225.522V76.7486H237.666V75.9875Z" fill="#EBEBEB"/>
<path d="M245.6 77.4521H225.522V78.2132H245.6V77.4521Z" fill="#EBEBEB"/>
<path d="M215.845 107.604H255.068V80.1404H215.845V107.604Z" fill="#EBEBEB"/>
<path d="M220.428 87.9473C220.428 88.5898 220.618 89.218 220.975 89.7522C221.332 90.2865 221.84 90.7029 222.433 90.9488C223.027 91.1947 223.68 91.259 224.31 91.1337C224.941 91.0083 225.519 90.6989 225.974 90.2445C226.428 89.7902 226.738 89.2113 226.863 88.5811C226.988 87.9509 226.924 87.2977 226.678 86.704C226.432 86.1104 226.016 85.603 225.481 85.246C224.947 84.889 224.319 84.6985 223.677 84.6985C222.815 84.6985 221.989 85.0408 221.379 85.65C220.77 86.2593 220.428 87.0857 220.428 87.9473Z" fill="#DBDBDB"/>
<path d="M233.259 101.687H255.068L244.164 86.9038L233.259 101.687Z" fill="#C7C7C7"/>
<path d="M224.707 101.7H242.714L233.708 92.0759L224.707 101.7Z" fill="#DBDBDB"/>
<path d="M255.068 101.687H215.845V107.604H255.068V101.687Z" fill="#DBDBDB"/>
<path d="M221.741 122.084C221.395 122.299 220.996 122.413 220.589 122.413C220.182 122.413 219.783 122.299 219.437 122.084C219.032 121.833 218.72 121.457 218.548 121.014C218.376 120.57 218.353 120.082 218.483 119.624C218.614 119.166 218.89 118.762 219.27 118.475C219.65 118.188 220.113 118.033 220.589 118.033C221.065 118.033 221.528 118.188 221.908 118.475C222.288 118.762 222.564 119.166 222.695 119.624C222.825 120.082 222.802 120.57 222.63 121.014C222.458 121.457 222.146 121.833 221.741 122.084Z" fill="#DBDBDB"/>
<path d="M220.591 120.64C220.96 120.64 221.258 120.341 221.258 119.973C221.258 119.605 220.96 119.306 220.591 119.306C220.223 119.306 219.924 119.605 219.924 119.973C219.924 120.341 220.223 120.64 220.591 120.64Z" fill="white"/>
<path d="M221.741 121.81V122.084C221.395 122.3 220.996 122.414 220.589 122.414C220.182 122.414 219.783 122.3 219.437 122.084V121.81C219.455 121.516 219.583 121.241 219.798 121.039C220.012 120.837 220.295 120.725 220.589 120.725C220.883 120.725 221.166 120.837 221.38 121.039C221.594 121.241 221.723 121.516 221.741 121.81Z" fill="white"/>
<path d="M243.411 118.16H225.522V119.306H243.411V118.16Z" fill="#EBEBEB"/>
<path d="M248.362 120.071H225.522V120.832H248.362V120.071Z" fill="#EBEBEB"/>
<path d="M233.3 121.536H225.522V122.297H233.3V121.536Z" fill="#EBEBEB"/>
<path d="M255.06 124.224H215.845V130.93H255.06V124.224Z" fill="#EBEBEB"/>
<path d="M226.733 130.934H220.62C220.845 130.304 221.259 129.758 221.807 129.372C222.354 128.986 223.007 128.779 223.677 128.779C224.346 128.779 224.999 128.986 225.547 129.372C226.094 129.758 226.508 130.304 226.733 130.934Z" fill="#DBDBDB"/>
<path d="M218.48 110.82C218.419 110.57 218.434 110.309 218.522 110.068C218.61 109.827 218.767 109.617 218.974 109.466C219.181 109.314 219.429 109.228 219.685 109.217C219.941 109.206 220.195 109.271 220.414 109.405C220.633 109.538 220.808 109.733 220.916 109.966C221.024 110.198 221.061 110.458 221.022 110.711C220.982 110.965 220.869 111.201 220.695 111.39C220.522 111.579 220.296 111.712 220.047 111.773C219.881 111.814 219.709 111.821 219.541 111.796C219.372 111.77 219.211 111.711 219.065 111.622C218.919 111.534 218.793 111.417 218.692 111.279C218.592 111.142 218.52 110.985 218.48 110.82Z" fill="#EBEBEB"/>
<path fill-rule="evenodd" clip-rule="evenodd" d="M219.565 111.028C219.528 111.008 219.499 110.975 219.454 110.979C219.409 110.983 219.454 110.979 219.454 110.959V110.439C219.451 110.435 219.449 110.43 219.449 110.425C219.449 110.42 219.451 110.415 219.454 110.411C219.585 110.345 219.642 110.214 219.724 110.1C219.767 110.042 219.798 109.975 219.814 109.905C219.831 109.834 219.832 109.761 219.818 109.69C219.818 109.654 219.818 109.637 219.867 109.629C219.885 109.622 219.904 109.621 219.921 109.626C219.939 109.631 219.955 109.642 219.966 109.658C220.004 109.729 220.029 109.806 220.039 109.887C220.047 109.951 220.047 110.015 220.039 110.079C220.039 110.128 220.019 110.173 220.011 110.222C220.002 110.271 220.035 110.222 220.047 110.222H220.485C220.547 110.222 220.579 110.222 220.587 110.28C220.592 110.305 220.588 110.331 220.576 110.354C220.564 110.377 220.545 110.395 220.522 110.406C220.522 110.406 220.493 110.406 220.493 110.427C220.493 110.447 220.493 110.427 220.522 110.447C220.551 110.468 220.563 110.558 220.522 110.603C220.481 110.648 220.481 110.603 220.481 110.627C220.481 110.652 220.506 110.627 220.518 110.66C220.527 110.672 220.534 110.686 220.537 110.701C220.54 110.716 220.539 110.731 220.535 110.746C220.531 110.761 220.524 110.774 220.514 110.786C220.504 110.797 220.491 110.806 220.477 110.811H220.448C220.448 110.811 220.448 110.811 220.448 110.832C220.463 110.839 220.476 110.85 220.484 110.864C220.493 110.877 220.498 110.893 220.498 110.91C220.498 110.926 220.493 110.942 220.484 110.956C220.476 110.969 220.463 110.98 220.448 110.987C220.423 110.996 220.396 110.996 220.371 110.987H219.683C219.68 111 219.675 111.011 219.666 111.02C219.658 111.03 219.647 111.037 219.635 111.041C219.623 111.045 219.611 111.046 219.598 111.044C219.586 111.042 219.574 111.036 219.565 111.028Z" fill="white"/>
<path fill-rule="evenodd" clip-rule="evenodd" d="M218.909 110.726C218.909 110.615 218.909 110.505 218.909 110.394C218.909 110.374 218.909 110.362 218.942 110.362C219.073 110.362 219.208 110.362 219.351 110.362C219.376 110.362 219.38 110.362 219.38 110.394V111.057C219.38 111.086 219.38 111.094 219.343 111.094H218.954C218.921 111.094 218.917 111.094 218.917 111.053C218.913 110.963 218.909 110.836 218.909 110.726Z" fill="white"/>
<path d="M221.205 110.82C221.144 110.57 221.159 110.309 221.247 110.068C221.335 109.828 221.492 109.618 221.699 109.467C221.906 109.316 222.153 109.229 222.409 109.218C222.665 109.207 222.919 109.272 223.138 109.405C223.357 109.538 223.532 109.733 223.64 109.965C223.749 110.197 223.786 110.456 223.747 110.71C223.708 110.963 223.596 111.199 223.423 111.388C223.25 111.578 223.025 111.712 222.776 111.773C222.61 111.814 222.438 111.823 222.269 111.797C222.1 111.771 221.937 111.713 221.791 111.624C221.645 111.535 221.518 111.419 221.417 111.281C221.317 111.142 221.244 110.986 221.205 110.82Z" fill="#C53F3F"/>
<path d="M223.128 110.676C223.128 110.852 223.058 111.021 222.934 111.145C222.81 111.269 222.641 111.339 222.465 111.339C222.289 111.339 222.121 111.269 221.996 111.145C221.872 111.021 221.802 110.852 221.802 110.676C221.76 110.614 221.731 110.544 221.719 110.47C221.706 110.396 221.709 110.321 221.728 110.248C221.747 110.176 221.781 110.108 221.829 110.05C221.876 109.992 221.936 109.944 222.003 109.911C222.371 109.801 222.465 110.443 222.465 110.443C222.465 110.443 222.559 109.801 222.932 109.911C223.189 109.989 223.292 110.345 223.128 110.676Z" fill="white"/>
<path d="M244.163 110.345H225.738V111.094H244.163V110.345Z" fill="#EBEBEB"/>
<path d="M215.845 114.817L220.747 114.744L225.649 114.703L235.453 114.666L245.256 114.703L250.158 114.744L255.06 114.817L250.158 114.895L245.256 114.936L235.453 114.973L225.649 114.936L220.747 114.895L215.845 114.817Z" fill="#EBEBEB"/>
</g>
<defs>
<filter id="filter0_d_272_535" x="3.05811" y="0.921387" width="253.294" height="127.94" filterUnits="userSpaceOnUse" color-interpolation-filters="sRGB">
<feFlood flood-opacity="0" result="BackgroundImageFix"/>
<feColorMatrix in="SourceAlpha" type="matrix" values="0 0 0 0 0 0 0 0 0 0 0 0 0 0 0 0 0 0 127 0" result="hardAlpha"/>
<feOffset dy="4"/>
<feGaussianBlur stdDeviation="2"/>
<feComposite in2="hardAlpha" operator="out"/>
<feColorMatrix type="matrix" values="0 0 0 0 0 0 0 0 0 0 0 0 0 0 0 0 0 0 0.1 0"/>
<feBlend mode="normal" in2="BackgroundImageFix" result="effect1_dropShadow_272_535"/>
<feBlend mode="normal" in="SourceGraphic" in2="effect1_dropShadow_272_535" result="shape"/>
</filter>
<filter id="filter1_d_272_535" x="0.955078" y="126.193" width="277.045" height="41.8137" filterUnits="userSpaceOnUse" color-interpolation-filters="sRGB">
<feFlood flood-opacity="0" result="BackgroundImageFix"/>
<feColorMatrix in="SourceAlpha" type="matrix" values="0 0 0 0 0 0 0 0 0 0 0 0 0 0 0 0 0 0 127 0" result="hardAlpha"/>
<feOffset dy="4"/>
<feGaussianBlur stdDeviation="2"/>
<feComposite in2="hardAlpha" operator="out"/>
<feColorMatrix type="matrix" values="0 0 0 0 0 0 0 0 0 0 0 0 0 0 0 0 0 0 0.1 0"/>
<feBlend mode="normal" in2="BackgroundImageFix" result="effect1_dropShadow_272_535"/>
<feBlend mode="normal" in="SourceGraphic" in2="effect1_dropShadow_272_535" result="shape"/>
</filter>
<filter id="filter2_d_272_535" x="2.79199" y="120.656" width="273.371" height="8.40918" filterUnits="userSpaceOnUse" color-interpolation-filters="sRGB">
<feFlood flood-opacity="0" result="BackgroundImageFix"/>
<feColorMatrix in="SourceAlpha" type="matrix" values="0 0 0 0 0 0 0 0 0 0 0 0 0 0 0 0 0 0 127 0" result="hardAlpha"/>
<feOffset dy="4"/>
<feGaussianBlur stdDeviation="2"/>
<feComposite in2="hardAlpha" operator="out"/>
<feColorMatrix type="matrix" values="0 0 0 0 0 0 0 0 0 0 0 0 0 0 0 0 0 0 0.1 0"/>
<feBlend mode="normal" in2="BackgroundImageFix" result="effect1_dropShadow_272_535"/>
<feBlend mode="normal" in="SourceGraphic" in2="effect1_dropShadow_272_535" result="shape"/>
</filter>
<filter id="filter3_d_272_535" x="35.2188" y="20.3079" width="208.21" height="129.507" filterUnits="userSpaceOnUse" color-interpolation-filters="sRGB">
<feFlood flood-opacity="0" result="BackgroundImageFix"/>
<feColorMatrix in="SourceAlpha" type="matrix" values="0 0 0 0 0 0 0 0 0 0 0 0 0 0 0 0 0 0 127 0" result="hardAlpha"/>
<feOffset dy="4"/>
<feGaussianBlur stdDeviation="2"/>
<feComposite in2="hardAlpha" operator="out"/>
<feColorMatrix type="matrix" values="0 0 0 0 0 0 0 0 0 0 0 0 0 0 0 0 0 0 0.1 0"/>
<feBlend mode="normal" in2="BackgroundImageFix" result="effect1_dropShadow_272_535"/>
<feBlend mode="normal" in="SourceGraphic" in2="effect1_dropShadow_272_535" result="shape"/>
</filter>
<filter id="filter4_d_272_535" x="15.0425" y="72.1699" width="112.092" height="77.645" filterUnits="userSpaceOnUse" color-interpolation-filters="sRGB">
<feFlood flood-opacity="0" result="BackgroundImageFix"/>
<feColorMatrix in="SourceAlpha" type="matrix" values="0 0 0 0 0 0 0 0 0 0 0 0 0 0 0 0 0 0 127 0" result="hardAlpha"/>
<feOffset dy="4"/>
<feGaussianBlur stdDeviation="2"/>
<feComposite in2="hardAlpha" operator="out"/>
<feColorMatrix type="matrix" values="0 0 0 0 0 0 0 0 0 0 0 0 0 0 0 0 0 0 0.1 0"/>
<feBlend mode="normal" in2="BackgroundImageFix" result="effect1_dropShadow_272_535"/>
<feBlend mode="normal" in="SourceGraphic" in2="effect1_dropShadow_272_535" result="shape"/>
</filter>
<filter id="filter5_d_272_535" x="209.537" y="59.3262" width="51.8184" height="90.554" filterUnits="userSpaceOnUse" color-interpolation-filters="sRGB">
<feFlood flood-opacity="0" result="BackgroundImageFix"/>
<feColorMatrix in="SourceAlpha" type="matrix" values="0 0 0 0 0 0 0 0 0 0 0 0 0 0 0 0 0 0 127 0" result="hardAlpha"/>
<feOffset dy="4"/>
<feGaussianBlur stdDeviation="2"/>
<feComposite in2="hardAlpha" operator="out"/>
<feColorMatrix type="matrix" values="0 0 0 0 0 0 0 0 0 0 0 0 0 0 0 0 0 0 0.1 0"/>
<feBlend mode="normal" in2="BackgroundImageFix" result="effect1_dropShadow_272_535"/>
<feBlend mode="normal" in="SourceGraphic" in2="effect1_dropShadow_272_535" result="shape"/>
</filter>
</defs>
</svg>
