<svg width="56" height="49" viewBox="0 0 56 49" fill="none" xmlns="http://www.w3.org/2000/svg">
<path d="M45.8493 35.1871C45.8493 36.659 45.9751 38.0631 45.8206 39.4367C45.5736 41.6328 43.6064 43.2857 41.3521 43.2892C29.8495 43.3044 18.3472 43.3044 6.84517 43.2892C4.28405 43.2852 2.29394 41.2634 2.27288 38.6892C2.24683 35.4909 2.26586 32.2913 2.26586 29.0921C2.26586 24.8198 2.31943 20.5463 2.24738 16.275C2.19788 13.3441 4.44699 11.2467 7.32751 11.2754C15.1186 11.3528 22.9111 11.302 30.7029 11.302H31.4566V12.0783C31.4566 17.8324 31.4446 23.5863 31.4633 29.3402C31.4725 32.2455 33.4689 34.572 36.3668 35.0972C36.863 35.1697 37.3647 35.1987 37.8661 35.184C40.5048 35.1913 43.1431 35.1871 45.8493 35.1871Z" fill="#28C675"/>
<path d="M55.8644 16.5378C55.8644 20.6828 55.8644 24.8278 55.8644 28.9728C55.8626 31.5552 54.3965 32.9949 51.7715 32.9958C47.0993 32.9978 42.4271 32.9978 37.755 32.9958C35.1772 32.9944 33.6909 31.5326 33.6909 29.0022C33.6896 20.6694 33.6896 12.3365 33.6909 4.00351C33.6909 1.48236 35.1974 0.00190803 37.7585 0.000999446C42.4525 -0.000333149 47.1465 -0.000333149 51.8406 0.000999446C54.3646 0.00208975 55.8609 1.47546 55.864 3.97389C55.8687 8.16187 55.8688 12.3499 55.8644 16.5378ZM44.6955 29.3745C45.8281 29.3745 46.9607 29.38 48.0933 29.3727C48.9342 29.3675 49.4167 28.9646 49.4215 28.2861C49.4263 27.6075 48.9333 27.183 48.1099 27.1809C45.8883 27.1752 43.6667 27.1752 41.445 27.1809C40.6479 27.183 40.1184 27.6484 40.1356 28.3017C40.1524 28.9362 40.6575 29.3649 41.4287 29.3716C42.5174 29.3815 43.6065 29.3744 44.6955 29.3745Z" fill="#28C675"/>
<path d="M24.1299 46.2231C31.5964 46.2231 39.063 46.2231 46.5297 46.2231C47.6477 46.2231 48.1923 46.589 48.1803 47.3288C48.1683 48.0686 47.6261 48.4208 46.5022 48.4208C31.5471 48.4208 16.5919 48.4208 1.63677 48.4208C1.41873 48.4308 1.20024 48.4253 0.983008 48.4042C0.697105 48.3742 0.434535 48.2352 0.251534 48.017C0.0685328 47.7989 -0.020347 47.5189 0.00393023 47.2371C0.0388445 46.6675 0.449134 46.2774 1.07537 46.232C1.2928 46.2163 1.5119 46.2236 1.73006 46.2236C9.19667 46.2232 16.6633 46.2231 24.1299 46.2231Z" fill="#28C675"/>
</svg>
