<svg width="55" height="50" viewBox="0 0 55 50" fill="none" xmlns="http://www.w3.org/2000/svg">
<path d="M0.00300908 39.1285H34.834V42.6169H42.5594V33.7997H34.8761V37.2927H0.00300908V36.7894C0.00300908 34.0863 0.00300908 31.3831 0.00300908 28.6799C0.0041939 27.3543 0.75892 26.6621 2.20459 26.6619C12.3484 26.6608 22.4922 26.6608 32.636 26.6619C34.1069 26.6619 34.8488 27.3559 34.8522 28.7256C34.8533 29.203 34.8522 29.6801 34.8522 30.1863H42.5499V23.1316C42.3653 23.1234 42.1712 23.1075 41.9772 23.1075C37.3389 23.106 32.7005 23.1109 28.0624 23.0982C27.8851 23.0809 27.706 23.1087 27.5447 23.1787C27.3834 23.2486 27.2462 23.3578 27.1481 23.4945C26.3531 24.5703 25.3174 25.0644 23.833 24.9115C22.54 24.7785 21.2179 24.8838 19.8571 24.8838C20.0704 23.8954 20.293 22.9481 20.4746 21.9943C20.6287 21.2493 20.7394 20.4972 20.8064 19.7414C20.8421 19.2494 21.0856 19.1457 21.5568 19.1016C23.9264 18.8802 26.2658 18.5033 28.5201 17.7718C29.2162 17.5461 29.8919 17.2674 30.7176 16.9607C30.4289 17.8543 30.169 18.6587 29.89 19.5227C30.1054 19.5325 30.3133 19.5499 30.5219 19.5501C35.0794 19.5516 39.6371 19.5521 44.1948 19.5516C45.7226 19.5516 46.4689 20.228 46.4691 21.6169C46.47 29.1337 46.47 36.6507 46.4691 44.1677C46.4691 45.5306 45.724 46.2125 44.2339 46.2136C41.3501 46.2153 38.4662 46.2153 35.5824 46.2136H34.853C34.853 46.7626 34.8555 47.2744 34.853 47.786C34.8458 49.0438 34.0793 49.767 32.7292 49.7672C22.5252 49.7697 12.3211 49.7697 2.11711 49.7672C0.800784 49.7672 0.00715528 49.0378 0.00419325 47.8319C-0.000809304 45.073 -0.00133577 42.3143 0.00261361 39.5558L0.00300908 39.1285ZM21.3001 30.2166C20.0501 30.2166 18.7999 30.2108 17.5501 30.2182C16.3612 30.2251 15.503 30.9664 15.4941 31.9778C15.4852 32.9893 16.3479 33.7645 17.5189 33.7685C20.039 33.7773 22.5591 33.7773 25.0792 33.7685C26.2528 33.7643 27.1131 32.9904 27.1062 31.98C27.0983 30.9728 26.2336 30.2249 25.0498 30.218C23.8002 30.2108 22.5502 30.2166 21.3003 30.2166H21.3001ZM21.3297 42.6592C20.0797 42.6592 18.8295 42.6546 17.5797 42.6604C16.3527 42.6662 15.4866 43.4143 15.4941 44.4489C15.5014 45.4556 16.3663 46.2085 17.5497 46.2118C20.0497 46.2188 22.5496 46.2188 25.0496 46.2118C26.2344 46.2085 27.0979 45.458 27.1062 44.4502C27.1145 43.4206 26.2407 42.6662 25.019 42.6604C23.7895 42.6546 22.5595 42.6592 21.3297 42.6592ZM7.74518 32.0212C7.75128 31.6692 7.64333 31.3234 7.43504 31.0279C7.22675 30.7323 6.9275 30.5002 6.57528 30.361C6.22307 30.2218 5.83375 30.1818 5.45675 30.2461C5.07974 30.3105 4.73204 30.4761 4.45778 30.7222C4.18351 30.9682 3.99504 31.2835 3.91629 31.628C3.83753 31.9726 3.87204 32.3308 4.01544 32.6573C4.15884 32.9839 4.40465 33.2639 4.7217 33.4619C5.03874 33.6599 5.41271 33.767 5.79616 33.7696C6.30531 33.7693 6.79418 33.5863 7.15835 33.2596C7.52251 32.933 7.73312 32.4885 7.74518 32.0212ZM11.6365 30.2178C11.2531 30.2145 10.8772 30.3159 10.5566 30.509C10.236 30.7022 9.98515 30.9784 9.83585 31.3027C9.68655 31.627 9.64555 31.9846 9.71804 32.3303C9.79053 32.676 9.97326 32.9942 10.243 33.2444C10.5128 33.4946 10.8574 33.6655 11.2332 33.7356C11.609 33.8057 11.999 33.7716 12.3537 33.6379C12.7084 33.5041 13.0118 33.2766 13.2254 32.9842C13.439 32.6919 13.5532 32.3478 13.5535 31.9958C13.5528 31.5276 13.3512 31.0784 12.9924 30.7457C12.6336 30.4129 12.1465 30.2233 11.6365 30.2178ZM7.74518 44.4562C7.74964 44.1041 7.64008 43.7588 7.43042 43.464C7.22075 43.1693 6.92042 42.9383 6.56755 42.8006C6.21468 42.6628 5.82517 42.6243 5.44847 42.6901C5.07176 42.7559 4.72483 42.923 4.45172 43.1701C4.1786 43.4172 3.99161 43.7332 3.91447 44.0781C3.83734 44.423 3.87354 44.7811 4.01847 45.107C4.16341 45.433 4.41055 45.712 4.72853 45.9088C5.04651 46.1056 5.42099 46.2111 5.80445 46.2122C6.31366 46.2102 6.80181 46.0253 7.16449 45.6972C7.52717 45.369 7.73559 44.9236 7.74518 44.4562ZM13.5535 44.454C13.5573 44.1022 13.4471 43.7574 13.237 43.4632C13.0269 43.169 12.7264 42.9387 12.3736 42.8015C12.0208 42.6644 11.6315 42.6265 11.2552 42.6928C10.8789 42.759 10.5325 42.9263 10.2599 43.1736C9.9874 43.4208 9.80097 43.7368 9.72431 44.0815C9.64766 44.4262 9.68423 44.784 9.82939 45.1095C9.97455 45.4351 10.2218 45.7137 10.5397 45.9101C10.8576 46.1065 11.2318 46.2117 11.615 46.2125C12.1243 46.2101 12.6124 46.0247 12.9747 45.696C13.337 45.3674 13.5448 44.9215 13.5535 44.454Z" fill="#28C675"/>
<path d="M38.6296 9.9209C41.8182 13.1967 47.0898 13.3474 50.462 9.9209C52.4367 11.0652 53.6726 12.671 54.0909 14.7916C54.1664 15.1737 54.2053 15.5611 54.2072 15.9495C54.2182 16.1865 54.1764 16.4232 54.0844 16.6449C53.9923 16.8666 53.852 17.0688 53.6719 17.239C53.4919 17.4092 53.2759 17.5439 53.0372 17.6348C52.7985 17.7258 52.5421 17.771 52.2836 17.7679C47.1242 17.7799 41.9647 17.7803 36.8052 17.7689C35.7389 17.767 35.1088 17.1942 34.7989 15.9993C32.6347 15.9993 30.4566 15.9294 28.2882 16.032C27.3486 16.0764 26.4395 16.5215 25.4977 16.7049C24.0637 16.983 22.6133 17.191 21.1177 17.4374V11.0406C22.1775 11.1872 23.249 11.288 24.2969 11.4938C25.5147 11.7322 26.7104 12.0649 27.9177 12.3493C28.1293 12.4032 28.3473 12.433 28.5668 12.438C30.8442 12.4443 33.1216 12.4335 35.3992 12.4505C35.555 12.4637 35.7115 12.4344 35.8492 12.3662C35.9869 12.2981 36.0996 12.1943 36.1733 12.0676C36.7945 11.1829 37.6365 10.4469 38.6296 9.9209Z" fill="#28C675"/>
<path d="M44.5134 2.77389e-05C45.6616 -0.00337239 46.7851 0.30588 47.7418 0.888681C48.6986 1.47148 49.4456 2.30166 49.8885 3.27424C50.3314 4.24681 50.4502 5.31811 50.2299 6.35267C50.0096 7.38723 49.4601 8.33859 48.6509 9.08645C47.8417 9.83431 46.8091 10.3451 45.6837 10.5542C44.5584 10.7633 43.3907 10.6613 42.3285 10.2612C41.2662 9.86108 40.357 9.18075 39.7159 8.30625C39.0748 7.43175 38.7305 6.40235 38.7266 5.34821C38.7242 3.93523 39.3319 2.57899 40.4165 1.57656C41.5012 0.574124 42.9744 0.00722167 44.5134 2.77389e-05Z" fill="#28C675"/>
<path d="M0.374512 11.4679C1.26608 6.03249 6.67674 1.13935 12.4567 0.346191C12.1731 0.985798 11.8692 1.59821 11.6273 2.23056C10.8295 4.31726 10.4123 6.48029 10.166 8.67322C10.1253 9.03581 10.074 9.27947 9.57006 9.32679C6.41588 9.62266 3.31818 10.1457 0.374512 11.4679Z" fill="#28C675"/>
<path d="M30.575 11.4487C27.6469 10.1336 24.5087 9.61325 21.3137 9.31303C20.8457 9.26915 20.8569 8.98978 20.8224 8.69245C20.5671 6.50042 20.1591 4.33613 19.3601 2.24962C19.1161 1.61219 18.8106 0.994698 18.5308 0.361799C23.3269 0.316113 30.7944 7.18409 30.575 11.4487Z" fill="#28C675"/>
<path d="M11.1388 24.8826C9.24527 24.8826 7.39202 24.8866 5.53897 24.875C5.38143 24.8615 5.23347 24.7996 5.11895 24.6994C2.72706 22.7352 1.06698 20.1313 0.372779 17.2549C0.363506 17.1729 0.362779 17.0904 0.370607 17.0083C1.13698 17.2844 1.86644 17.5703 2.61307 17.812C4.81129 18.5217 7.09364 18.8789 9.40146 19.0975C9.90718 19.1456 10.105 19.2788 10.1825 19.7721C10.4283 21.3445 10.7571 22.9058 11.0543 24.4715C11.0776 24.5947 11.1044 24.7162 11.1388 24.8826Z" fill="#28C675"/>
<path d="M11.8359 17.5711V10.8762H19.1376V17.5711H11.8359Z" fill="#28C675"/>
<path d="M18.9547 9.05335H11.9463C12.3104 7.37837 12.5863 5.7188 13.0509 4.10528C13.3823 2.98476 13.8493 1.90185 14.4433 0.876792C15.1188 -0.302528 15.8143 -0.272433 16.5649 0.879693C17.6575 2.55667 18.1125 4.43614 18.5044 6.32614C18.6883 7.21321 18.8018 8.11261 18.9547 9.05335Z" fill="#28C675"/>
<path d="M9.8668 11.0537V17.4081C8.69542 17.2349 7.51376 17.1392 6.3793 16.8738C4.7879 16.5012 3.22118 16.0308 1.6669 15.5406C1.18287 15.3585 0.739068 15.0969 0.357283 14.7686C-0.130466 14.3879 -0.109337 14.0529 0.366761 13.6491C0.60167 13.4466 0.863873 13.2726 1.14696 13.1313C3.86868 11.8093 6.84553 11.4067 9.8668 11.0537Z" fill="#28C675"/>
<path d="M11.9248 19.384H18.9646C18.774 20.4718 18.6022 21.5565 18.388 22.6346C18.2655 23.251 18.0645 23.8544 17.9188 24.4675C17.8501 24.7576 17.7343 24.9001 17.3645 24.893C16.1159 24.8691 14.8663 24.893 13.6175 24.8725C13.4473 24.8696 13.158 24.7377 13.1302 24.6233C12.7117 22.8973 12.3278 21.1643 11.9248 19.384Z" fill="#28C675"/>
</svg>
